<?xml version="1.0" encoding="UTF-8" standalone="no"?>
<!-- Created with Inkscape (http://www.inkscape.org/) -->
<svg xmlns:inkscape="http://www.inkscape.org/namespaces/inkscape" xmlns:sodipodi="http://sodipodi.sourceforge.net/DTD/sodipodi-0.dtd" xmlns="http://www.w3.org/2000/svg" xmlns:svg="http://www.w3.org/2000/svg" version="1.1" id="svg2" width="510.50668" height="127.56" viewBox="0 0 510.50668 127.56" sodipodi:docname="LogoSWZ.eps">
  <defs id="defs6"/>
  <g id="g8" inkscape:groupmode="layer" inkscape:label="ink_ext_XXXXXX" transform="matrix(1.3333333,0,0,-1.3333333,0,127.56)">
    <g id="g10" transform="scale(0.1)">
      <path d="m 150.449,559.941 c 3.098,-25.996 9.801,-44.472 20.102,-55.429 18.234,-19.496 51.922,-29.254 101.086,-29.254 28.867,0 51.82,4.277 68.847,12.832 17.02,8.555 25.524,21.383 25.524,38.492 0,16.426 -6.863,28.918 -20.563,37.473 -13.707,8.547 -64.726,23.265 -153.027,44.14 -63.574,15.735 -108.3711,35.41 -134.3555,59.012 -26.0078,23.273 -39.0039,56.801 -39.0039,100.602 0,51.664 20.3047,96.043 60.9531,133.168 40.6173,37.125 97.8043,55.699 171.5193,55.699 69.938,0 126.961,-13.949 171.02,-41.848 44.066,-27.883 69.351,-76.023 75.871,-144.453 H 352.148 c -2.07,18.82 -7.367,33.703 -15.96,44.648 -16.114,19.844 -43.571,29.766 -82.344,29.766 -31.906,0 -54.625,-4.961 -68.168,-14.883 -13.567,-9.922 -20.348,-21.554 -20.348,-34.902 0,-16.762 7.207,-28.91 21.625,-36.438 14.391,-7.867 65.297,-21.382 152.727,-40.543 58.265,-13.687 101.941,-34.386 131.027,-62.101 28.746,-28.059 43.109,-63.129 43.109,-105.215 0,-55.43 -20.648,-100.695 -61.98,-135.769 -41.305,-35.071 -105.148,-52.59 -191.539,-52.59 -88.125,0 -153.184,18.547 -195.1681,55.672 C 23.1094,455.141 2.125,502.461 2.125,559.941 h 148.324" style="fill:#f68712;fill-opacity:1;fill-rule:nonzero;stroke:none" id="path12"/>
      <path d="m 885.406,940.762 h 148.324 l 85.2,-402.887 87.24,402.887 H 1358.6 L 1196.42,381.34 H 1046.04 L 958.281,788.848 869.492,381.34 H 717.574 L 560.523,940.762 h 157.051 l 87.254,-401.348 80.578,401.348" style="fill:#4e4b41;fill-opacity:1;fill-rule:nonzero;stroke:none" id="path14"/>
      <path d="m 1407.36,821.699 v 119.063 h 442.41 V 819.133 L 1575.28,501.438 h 284.23 V 381.34 h -471.65 v 113.937 l 277.3,326.422 h -257.8" style="fill:#4e4b41;fill-opacity:1;fill-rule:nonzero;stroke:none" id="path16"/>
      <path d="m 86.3789,235.754 v -31.281 c -9.7461,6.988 -18.5273,10.476 -26.332,10.476 -8.4141,0 -15.2969,-2.98 -20.6289,-8.929 -5.3399,-5.653 -8.0078,-13.172 -8.0078,-22.614 0,-8.316 1.8984,-15.472 5.6953,-21.422 1.9531,-3.179 5.1562,-7.289 9.6367,-12.32 4.4453,-5.031 10.2266,-11.078 17.3164,-18.164 13.0312,-13.246 21.9141,-24.676 26.6289,-34.3203 4.7227,-9.3438 7.0859,-20.8008 7.0859,-34.3477 0,-18.375 -5.1836,-33.5078 -15.5507,-45.414 C 71.8555,5.81641 58.5664,0 42.3438,0 28.6914,0 17.0352,3.77734 7.39453,11.2617 v 31.7266 c 11.39067,-8.3203 21.76177,-12.5 31.09767,-12.5 8.7266,0 15.5547,2.9101 20.4766,8.7031 4.9296,5.8086 7.3945,13.6719 7.3945,23.6406 0,8.6172 -1.8985,16.3868 -5.6992,23.2539 -1.9493,3.2891 -4.6719,7.0547 -8.1602,11.2969 -3.4883,4.2812 -7.8516,9.0352 -13.0859,14.2622 -8.1094,8.007 -14.8321,15.093 -20.1758,21.261 -5.332,6.149 -9.28517,11.52 -11.84767,16.137 C 2.46094,158.074 0,169.473 0,183.227 c 0,18.586 4.82422,33.32 14.4727,44.214 9.75,10.981 22.8359,16.45 39.2656,16.45 11.3906,0 22.2734,-2.703 32.6406,-8.137" style="fill:#4e4b41;fill-opacity:1;fill-rule:nonzero;stroke:none" id="path18"/>
      <path d="m 123.027,162.297 h 29.555 V 2.94922 h -29.555 z m 13.852,67.738 c 5.34,0 9.961,-1.949 13.859,-5.844 3.903,-3.914 5.856,-8.554 5.856,-14 0,-5.543 -1.953,-10.265 -5.856,-14.164 -3.898,-3.91 -8.625,-5.855 -14.168,-5.855 -5.539,0 -10.265,1.945 -14.168,5.855 -3.793,3.793 -5.691,8.551 -5.691,14.305 0,5.332 1.949,9.945 5.852,13.859 4.21,3.895 8.98,5.844 14.316,5.844" style="fill:#4e4b41;fill-opacity:1;fill-rule:nonzero;stroke:none" id="path20"/>
      <path d="m 185.688,162.297 h 29.41 V 142.59 c 8.109,14.883 18.89,22.336 32.336,22.336 14.675,0 24.636,-7.453 29.867,-22.336 7.801,14.883 18.89,22.336 33.262,22.336 11.191,0 19.714,-2.977 25.644,-8.86 5.883,-5.914 8.844,-14.613 8.844,-26.121 V 2.94922 H 315.488 V 107.781 c 0,12.008 -1.133,20.094 -3.386,24.192 -2.157,4.211 -6.364,6.289 -12.625,6.289 -7.09,0 -11.914,-2.137 -14.481,-6.453 -2.461,-4.211 -3.691,-12.215 -3.691,-24.028 V 2.94922 H 250.816 V 107.781 c 0,5.649 -0.289,10.446 -0.839,14.332 -0.575,3.907 -1.52,7.024 -2.852,9.387 -1.336,2.352 -3.082,4.066 -5.234,5.164 -2.157,1.055 -4.825,1.598 -8.008,1.598 -6.774,0 -11.598,-2.289 -14.473,-6.903 -2.871,-4.621 -4.312,-12.492 -4.312,-23.578 V 2.94922 h -29.41 V 162.297" style="fill:#4e4b41;fill-opacity:1;fill-rule:nonzero;stroke:none" id="path22"/>
      <path d="m 378.305,162.297 h 29.41 V 55.7422 c 0.207,-9.8633 1.676,-16.875 4.379,-21.0742 2.742,-4.2032 7.269,-6.3399 13.636,-6.3399 6.672,0 11.344,1.8516 14.004,5.543 2.672,3.9062 4.004,10.6797 4.004,20.3437 v 12.7813 95.3009 h 29.414 V 66.9961 c 0,-22.2656 -1.636,-37.1484 -4.929,-44.6523 C 461.344,7.77734 447.086,0.488281 425.422,0.488281 c -17.039,0 -29.152,4.308599 -36.336,12.929719 -7.188,8.7226 -10.781,23.2383 -10.781,43.5547 V 162.297" style="fill:#4e4b41;fill-opacity:1;fill-rule:nonzero;stroke:none" id="path24"/>
      <path d="m 506.41,264.527 h 29.41 V 2.94922 H 506.41 V 264.527" style="fill:#4e4b41;fill-opacity:1;fill-rule:nonzero;stroke:none" id="path26"/>
      <path d="m 593.711,83.3125 c 0,-20.9297 1.387,-35.5781 4.16,-43.8984 2.871,-8.3008 7.906,-12.4571 15.094,-12.4571 6.562,0 11.336,4.3203 14.308,12.9414 2.981,9.2461 4.465,23.4414 4.465,42.6289 0,19.3087 -1.484,33.5627 -4.465,42.8047 -2.972,8.629 -7.746,12.93 -14.308,12.93 -6.988,0 -11.969,-4.106 -14.938,-12.317 -2.875,-7.586 -4.316,-21.785 -4.316,-42.6325 z M 660.23,162.297 V 2.94922 H 630.82 V 23.4063 C 626.609,14.6836 622.398,8.69141 618.188,5.41016 613.984,2.13281 608.445,0.488281 601.563,0.488281 c -13.239,0 -22.942,6.773439 -29.102,20.312519 -6.156,13.5586 -9.234,34.8086 -9.234,63.7539 0,27.6093 3.078,47.9023 9.234,60.8673 6.16,13.012 15.863,19.504 29.102,19.504 12.113,0 21.867,-6.875 29.257,-20.633 v 18.004 h 29.41" style="fill:#4e4b41;fill-opacity:1;fill-rule:nonzero;stroke:none" id="path28"/>
      <path d="m 697.18,206.938 h 29.414 v -44.641 h 16.004 v -23.41 H 726.594 V 2.94922 H 697.18 V 138.887 h -16.16 v 23.41 h 16.16 v 44.641" style="fill:#4e4b41;fill-opacity:1;fill-rule:nonzero;stroke:none" id="path30"/>
      <path d="m 763.695,162.297 h 29.563 V 2.94922 h -29.563 z m 13.86,67.738 c 5.332,0 9.957,-1.949 13.855,-5.844 3.903,-3.914 5.852,-8.554 5.852,-14 0,-5.543 -1.949,-10.265 -5.852,-14.164 -3.898,-3.91 -8.621,-5.855 -14.164,-5.855 -5.547,0 -10.266,1.945 -14.164,5.855 -3.797,3.793 -5.695,8.551 -5.695,14.305 0,5.332 1.949,9.945 5.851,13.859 4.203,3.895 8.981,5.844 14.317,5.844" style="fill:#4e4b41;fill-opacity:1;fill-rule:nonzero;stroke:none" id="path32"/>
      <path d="m 889.957,82.0781 c 0,20.9419 -1.394,35.5309 -4.164,43.7379 -2.77,8.317 -7.695,12.446 -14.781,12.446 -6.981,0 -11.957,-4.106 -14.934,-12.317 -2.773,-8.207 -4.152,-22.511 -4.152,-42.9255 0,-20.4257 1.379,-34.7031 4.152,-42.8164 2.977,-8.1992 7.953,-12.2968 14.934,-12.2968 6.98,0 11.859,4.0273 14.629,12.121 2.875,7.6055 4.316,21.6446 4.316,42.0508 z m 30.481,-0.7773 c 0,-53.8945 -16.676,-80.812519 -50.04,-80.812519 -33.355,0 -50.043,27.347619 -50.043,82.039019 0,54.9137 16.633,82.3987 49.895,82.3987 8.617,0 16.078,-1.645 22.41,-4.93 6.289,-3.285 11.504,-8.383 15.617,-15.254 4.106,-6.887 7.168,-15.547 9.149,-26.008 2.015,-10.476 3.012,-22.9684 3.012,-37.4332" style="fill:#4e4b41;fill-opacity:1;fill-rule:nonzero;stroke:none" id="path34"/>
      <path d="m 947.844,162.297 h 29.414 v -18.309 c 8.418,13.961 19.297,20.938 32.642,20.938 12.93,0 22.17,-5.102 27.71,-15.262 3.08,-5.746 4.62,-16.859 4.62,-33.402 V 2.94922 h -29.4 l -0.16,106.54678 c 0,10.777 -1.29,18.406 -3.85,22.926 -2.57,4.523 -6.98,6.769 -13.246,6.769 -3.383,0 -6.222,-0.582 -8.554,-1.785 -2.293,-1.156 -4.168,-3.066 -5.61,-5.676 -1.43,-2.628 -2.5,-6.023 -3.148,-10.23 -0.68,-4.211 -1.004,-9.41 -1.004,-15.559 V 2.94922 H 947.844 V 162.297" style="fill:#4e4b41;fill-opacity:1;fill-rule:nonzero;stroke:none" id="path36"/>
      <path d="m 1137.07,159.016 v -27.657 c -7.18,5.34 -14.73,8.012 -22.63,8.012 -2.67,0 -5.13,-0.484 -7.38,-1.406 -2.27,-0.922 -4.25,-2.192 -5.93,-3.774 -1.71,-1.562 -3.04,-3.476 -4,-5.671 -0.99,-2.219 -1.47,-4.543 -1.47,-7.02 0,-7.59 6.88,-16.59 20.63,-27.0547 5.55,-4.3242 10.16,-8.3281 13.86,-12.0078 3.69,-3.668 6.52,-7.1484 8.47,-10.4414 4,-6.4648 6,-14.6094 6,-24.4609 0,-14.2422 -4.16,-25.6875 -12.47,-34.2813 -8.21,-8.52734 -19.25,-12.765619 -33.11,-12.765619 -8.51,0 -17.13,2.519529 -25.87,7.554689 V 36.6563 c 8.53,-6.3672 16.59,-9.5547 24.18,-9.5547 13.45,0 20.17,6.6054 20.17,19.8437 0,4.9258 -1.23,9.1641 -3.7,12.7617 -1.12,1.7539 -2.93,3.7657 -5.38,6.086 -2.46,2.2929 -5.5,4.9023 -9.09,7.7773 -12.42,9.6133 -20.83,17.7227 -25.25,24.3008 -4.31,6.7619 -6.46,14.9099 -6.46,24.4529 0,12.805 3.94,23.305 11.85,31.52 8.01,8.105 18.43,12.144 31.26,12.144 9.03,0 17.8,-2.336 26.32,-6.972" style="fill:#4e4b41;fill-opacity:1;fill-rule:nonzero;stroke:none" id="path38"/>
      <path d="m 1153.86,162.297 h 31.1 l 8.93,-51.262 c 1.75,-10.273 3.32,-20.1912 4.68,-29.7342 1.42,-9.543 2.51,-18.8125 3.32,-27.8438 l 0.47,-5.5547 0.61,5.8633 c 0.82,7.3867 1.67,14.1563 2.55,20.3867 0.86,6.1993 1.81,11.9336 2.84,17.168 l 2.47,12.1487 10.93,58.828 h 21.4 l 10.32,-58.828 3.39,-18.4729 c 0.71,-3.4922 1.38,-7.8398 2,-13 0.61,-5.2109 1.23,-11.3164 1.85,-18.3984 l 0.61,-5.6954 c 1.85,19.0938 4.47,37.6016 7.85,55.5667 l 10.94,58.828 h 28.94 L 1271.65,2.94922 h -20.33 l -12.16,60.80468 c -1.44,7.3906 -2.67,14.9414 -3.7,22.7227 -1.03,7.7187 -1.9,15.9644 -2.62,24.6954 -0.09,1.031 -0.2,2.258 -0.3,3.691 -0.1,1.438 -0.26,3.157 -0.46,5.098 -0.62,-9.336 -1.49,-18.402 -2.62,-27.2032 -1.13,-8.7422 -2.52,-17.5195 -4.16,-26.2344 L 1212.98,2.94922 h -20.32 l -38.8,159.34778" style="fill:#4e4b41;fill-opacity:1;fill-rule:nonzero;stroke:none" id="path40"/>
      <path d="m 1328.15,162.297 h 29.56 V 2.94922 h -29.56 z m 13.86,67.738 c 5.33,0 9.96,-1.949 13.86,-5.844 3.9,-3.914 5.85,-8.554 5.85,-14 0,-5.543 -1.95,-10.265 -5.85,-14.164 -3.9,-3.91 -8.62,-5.855 -14.17,-5.855 -5.54,0 -10.26,1.945 -14.16,5.855 -3.79,3.793 -5.69,8.551 -5.69,14.305 0,5.332 1.94,9.945 5.84,13.859 4.21,3.895 8.98,5.844 14.32,5.844" style="fill:#4e4b41;fill-opacity:1;fill-rule:nonzero;stroke:none" id="path42"/>
      <path d="m 1452.41,159.016 v -27.657 c -7.19,5.34 -14.73,8.012 -22.63,8.012 -2.68,0 -5.14,-0.484 -7.39,-1.406 -2.26,-0.922 -4.25,-2.192 -5.93,-3.774 -1.71,-1.562 -3.04,-3.476 -4,-5.671 -0.99,-2.219 -1.47,-4.543 -1.47,-7.02 0,-7.59 6.88,-16.59 20.63,-27.0547 5.55,-4.3242 10.17,-8.3281 13.86,-12.0078 3.69,-3.668 6.52,-7.1484 8.47,-10.4414 4,-6.4648 6,-14.6094 6,-24.4609 0,-14.2422 -4.15,-25.6875 -12.47,-34.2813 -8.21,-8.52734 -19.24,-12.765619 -33.1,-12.765619 -8.53,0 -17.14,2.519529 -25.87,7.554689 V 36.6563 c 8.52,-6.3672 16.58,-9.5547 24.18,-9.5547 13.44,0 20.16,6.6054 20.16,19.8437 0,4.9258 -1.23,9.1641 -3.7,12.7617 -1.12,1.7539 -2.91,3.7657 -5.38,6.086 -2.47,2.2929 -5.49,4.9023 -9.08,7.7773 -12.42,9.6133 -20.84,17.7227 -25.26,24.3008 -4.31,6.7619 -6.46,14.9099 -6.46,24.4529 0,12.805 3.95,23.305 11.85,31.52 8.01,8.105 18.43,12.144 31.26,12.144 9.03,0 17.81,-2.336 26.33,-6.972" style="fill:#4e4b41;fill-opacity:1;fill-rule:nonzero;stroke:none" id="path44"/>
      <path d="m 1545.1,159.016 v -27.657 c -7.18,5.34 -14.73,8.012 -22.63,8.012 -2.67,0 -5.14,-0.484 -7.4,-1.406 -2.26,-0.922 -4.24,-2.192 -5.91,-3.774 -1.71,-1.562 -3.05,-3.476 -4.01,-5.671 -0.99,-2.219 -1.47,-4.543 -1.47,-7.02 0,-7.59 6.88,-16.59 20.64,-27.0547 5.53,-4.3242 10.15,-8.3281 13.85,-12.0078 3.7,-3.668 6.52,-7.1484 8.47,-10.4414 4,-6.4648 6.01,-14.6094 6.01,-24.4609 0,-14.2422 -4.16,-25.6875 -12.47,-34.2813 -8.22,-8.52734 -19.26,-12.765619 -33.11,-12.765619 -8.53,0 -17.14,2.519529 -25.87,7.554689 V 36.6563 c 8.52,-6.3672 16.58,-9.5547 24.17,-9.5547 13.45,0 20.17,6.6054 20.17,19.8437 0,4.9258 -1.22,9.1641 -3.69,12.7617 -1.13,1.7539 -2.93,3.7657 -5.39,6.086 -2.46,2.2929 -5.49,4.9023 -9.08,7.7773 -12.42,9.6133 -20.84,17.7227 -25.26,24.3008 -4.31,6.7619 -6.47,14.9099 -6.47,24.4529 0,12.805 3.95,23.305 11.86,31.52 8.01,8.105 18.43,12.144 31.26,12.144 9.03,0 17.8,-2.336 26.33,-6.972" style="fill:#4e4b41;fill-opacity:1;fill-rule:nonzero;stroke:none" id="path46"/>
      <path d="m 1636.25,98.1094 c -1.24,16.7186 -3.13,27.7066 -5.7,32.9456 -2.67,5.855 -6.98,8.754 -12.93,8.754 -6.06,0 -10.36,-2.899 -12.94,-8.754 -2.57,-5.239 -4.46,-16.227 -5.69,-32.9456 z m 1.54,-41.4336 h 27.41 C 1663.04,19.2031 1647.64,0.488281 1619,0.488281 c -8.52,0 -15.82,1.574219 -21.94,4.753909 -6.1,3.17578 -11.16,8.10161 -15.17,14.77731 -4,6.6797 -6.94,15.1563 -8.86,25.4297 -1.88,10.2539 -2.83,22.4727 -2.83,36.6289 0,28.1329 3.94,48.9769 11.77,62.5309 7.87,13.539 20,20.317 36.42,20.317 31.92,0 47.89,-28.125 47.89,-84.3674 v -3.707 h -67.29 c 0,-34.0743 6.78,-51.125 20.32,-51.125 12.32,0 18.48,10.3007 18.48,30.9492" style="fill:#4e4b41;fill-opacity:1;fill-rule:nonzero;stroke:none" id="path48"/>
      <path d="m 1692.45,162.297 h 29.41 v -18.309 c 8.41,13.961 19.29,20.938 32.64,20.938 12.93,0 22.17,-5.102 27.72,-15.262 3.07,-5.746 4.61,-16.859 4.61,-33.402 V 2.94922 h -29.4 l -0.16,106.54678 c 0,10.777 -1.28,18.406 -3.85,22.926 -2.57,4.523 -6.98,6.769 -13.24,6.769 -3.39,0 -6.22,-0.582 -8.56,-1.785 -2.29,-1.156 -4.17,-3.066 -5.61,-5.676 -1.43,-2.628 -2.49,-6.023 -3.14,-10.23 -0.69,-4.211 -1.01,-9.41 -1.01,-15.559 V 2.94922 h -29.41 V 162.297" style="fill:#4e4b41;fill-opacity:1;fill-rule:nonzero;stroke:none" id="path50"/>
      <path d="m 1881.67,159.016 v -27.657 c -7.19,5.34 -14.72,8.012 -22.62,8.012 -2.67,0 -5.13,-0.484 -7.39,-1.406 -2.27,-0.922 -4.25,-2.192 -5.92,-3.774 -1.72,-1.562 -3.05,-3.476 -4.01,-5.671 -0.99,-2.219 -1.47,-4.543 -1.47,-7.02 0,-7.59 6.88,-16.59 20.63,-27.0547 5.55,-4.3242 10.16,-8.3281 13.87,-12.0078 3.7,-3.668 6.49,-7.1484 8.45,-10.4414 4,-6.4648 6.03,-14.6094 6.03,-24.4609 0,-14.2422 -4.18,-25.6875 -12.49,-34.2813 -8.21,-8.52734 -19.24,-12.765619 -33.1,-12.765619 -8.52,0 -17.15,2.519529 -25.87,7.554689 V 36.6563 c 8.52,-6.3672 16.58,-9.5547 24.17,-9.5547 13.45,0 20.17,6.6054 20.17,19.8437 0,4.9258 -1.23,9.1641 -3.69,12.7617 -1.13,1.7539 -2.92,3.7657 -5.38,6.086 -2.47,2.2929 -5.5,4.9023 -9.1,7.7773 -12.42,9.6133 -20.83,17.7227 -25.24,24.3008 -4.32,6.7619 -6.47,14.9099 -6.47,24.4529 0,12.805 3.95,23.305 11.85,31.52 8.02,8.105 18.43,12.144 31.26,12.144 9.03,0 17.8,-2.336 26.32,-6.972" style="fill:#4e4b41;fill-opacity:1;fill-rule:nonzero;stroke:none" id="path52"/>
      <path d="m 1977.93,159.211 v -30.016 c -4.1,5.035 -9.04,7.543 -14.79,7.543 -16.21,0 -24.32,-17.554 -24.32,-52.6677 0,-37.2578 8.05,-55.8672 24.16,-55.8672 4.52,0 9.51,1.9766 14.95,5.9766 V 6.63281 c -7.8,-4.09765 -15.7,-6.144529 -23.71,-6.144529 -31.63,0 -47.43,26.894519 -47.43,80.668019 0,28.6407 3.89,49.7617 11.7,63.3397 7.8,13.613 19.92,20.43 36.35,20.43 7.9,0 15.59,-1.914 23.09,-5.715" style="fill:#4e4b41;fill-opacity:1;fill-rule:nonzero;stroke:none" id="path54"/>
      <path d="m 2001.02,264.527 h 29.4 V 143.988 c 8.41,13.961 19.29,20.938 32.64,20.938 12.94,0 22.17,-5.102 27.72,-15.262 3.08,-5.746 4.62,-16.859 4.62,-33.402 V 2.94922 H 2066 l -0.18,106.54678 c 0,10.777 -1.26,18.406 -3.83,22.926 -2.56,4.523 -6.97,6.769 -13.23,6.769 -3.39,0 -6.24,-0.582 -8.56,-1.785 -2.3,-1.156 -4.17,-3.066 -5.61,-5.676 -1.43,-2.628 -2.5,-6.023 -3.15,-10.23 -0.68,-4.211 -1.02,-9.41 -1.02,-15.559 V 2.94922 h -29.4 V 264.527" style="fill:#4e4b41;fill-opacity:1;fill-rule:nonzero;stroke:none" id="path56"/>
      <path d="m 2153.14,83.3125 c 0,-20.9297 1.37,-35.5781 4.15,-43.8984 2.88,-8.3008 7.91,-12.4571 15.08,-12.4571 6.58,0 11.36,4.3203 14.35,12.9414 2.97,9.2461 4.44,23.4414 4.44,42.6289 0,19.3087 -1.47,33.5627 -4.44,42.8047 -2.99,8.629 -7.77,12.93 -14.35,12.93 -6.97,0 -11.94,-4.106 -14.91,-12.317 -2.87,-7.586 -4.32,-21.785 -4.32,-42.6325 z m 66.52,78.9845 V 2.94922 h -29.42 V 23.4063 c -4.21,-8.7227 -8.42,-14.71489 -12.62,-17.99614 -4.21,-3.27735 -9.76,-4.921879 -16.63,-4.921879 -13.26,0 -22.93,6.773439 -29.09,20.312519 -6.16,13.5586 -9.24,34.8086 -9.24,63.7539 0,27.6093 3.08,47.9023 9.24,60.8673 6.16,13.012 15.83,19.504 29.09,19.504 12.1,0 21.85,-6.875 29.25,-20.633 v 18.004 h 29.42" style="fill:#4e4b41;fill-opacity:1;fill-rule:nonzero;stroke:none" id="path58"/>
      <path d="m 2241.84,162.297 h 14.77 v 55.59 c 0,18.172 2.68,31 8.01,38.496 5.34,7.488 14.61,11.226 27.85,11.226 5.75,0 12.42,-1.371 20.02,-4.148 v -31.098 c -4.72,2.575 -8.87,3.828 -12.45,3.828 -5.03,0 -8.59,-1.464 -10.71,-4.441 -2.09,-2.977 -3.15,-8.012 -3.15,-15.094 l -0.16,-12.008 v -42.351 h 24.93 v -23.41 h -24.93 V 2.94922 h -29.41 V 138.887 h -14.77 v 23.41" style="fill:#4e4b41;fill-opacity:1;fill-rule:nonzero;stroke:none" id="path60"/>
      <path d="m 2341.44,206.938 h 29.42 v -44.641 h 16.02 v -23.41 h -16.02 V 2.94922 h -29.42 V 138.887 h -16.16 v 23.41 h 16.16 v 44.641" style="fill:#4e4b41;fill-opacity:1;fill-rule:nonzero;stroke:none" id="path62"/>
      <path d="m 2407.96,264.527 h 29.41 V 2.94922 h -29.41 V 264.527" style="fill:#4e4b41;fill-opacity:1;fill-rule:nonzero;stroke:none" id="path64"/>
      <path d="m 2470.78,162.297 h 29.55 V 2.94922 h -29.55 z m 13.86,67.738 c 5.33,0 9.95,-1.949 13.86,-5.844 3.88,-3.914 5.84,-8.554 5.84,-14 0,-5.543 -1.96,-10.265 -5.84,-14.164 -3.91,-3.91 -8.64,-5.855 -14.18,-5.855 -5.55,0 -10.26,1.945 -14.16,5.855 -3.8,3.793 -5.68,8.551 -5.68,14.305 0,5.332 1.94,9.945 5.85,13.859 4.2,3.895 8.97,5.844 14.31,5.844" style="fill:#4e4b41;fill-opacity:1;fill-rule:nonzero;stroke:none" id="path66"/>
      <path d="m 2598.56,159.211 v -30.016 c -4.1,5.035 -9.03,7.543 -14.77,7.543 -16.23,0 -24.33,-17.554 -24.33,-52.6677 0,-37.2578 8.08,-55.8672 24.19,-55.8672 4.51,0 9.48,1.9766 14.91,5.9766 V 6.63281 c -7.8,-4.09765 -15.7,-6.144529 -23.7,-6.144529 -31.62,0 -47.43,26.894519 -47.43,80.668019 0,28.6407 3.91,49.7617 11.71,63.3397 7.79,13.613 19.91,20.43 36.33,20.43 7.9,0 15.6,-1.914 23.09,-5.715" style="fill:#4e4b41;fill-opacity:1;fill-rule:nonzero;stroke:none" id="path68"/>
      <path d="m 2621.65,264.527 h 29.42 V 143.988 c 8.41,13.961 19.29,20.938 32.64,20.938 12.94,0 22.18,-5.102 27.72,-15.262 3.08,-5.746 4.61,-16.859 4.61,-33.402 V 2.94922 h -29.42 l -0.13,106.54678 c 0,10.777 -1.3,18.406 -3.87,22.926 -2.57,4.523 -6.98,6.769 -13.24,6.769 -3.39,0 -6.23,-0.582 -8.52,-1.785 -2.32,-1.156 -4.21,-3.066 -5.65,-5.676 -1.43,-2.628 -2.46,-6.023 -3.14,-10.23 -0.65,-4.211 -1,-9.41 -1,-15.559 V 2.94922 h -29.42 V 264.527" style="fill:#4e4b41;fill-opacity:1;fill-rule:nonzero;stroke:none" id="path70"/>
      <path d="m 2809.36,98.1094 c -1.24,16.7186 -3.12,27.7066 -5.69,32.9456 -2.66,5.855 -6.97,8.754 -12.93,8.754 -6.05,0 -10.36,-2.899 -12.93,-8.754 -2.58,-5.239 -4.49,-16.227 -5.71,-32.9456 z m 1.54,-41.4336 h 27.4 c -2.17,-37.4727 -17.56,-56.187519 -46.19,-56.187519 -8.52,0 -15.84,1.574219 -21.92,4.753909 -6.14,3.17578 -11.16,8.10161 -15.17,14.77731 -4,6.6797 -6.97,15.1563 -8.87,25.4297 -1.91,10.2539 -2.83,22.4727 -2.83,36.6289 0,28.1329 3.9,48.9769 11.77,62.5309 7.83,13.539 19.98,20.317 36.4,20.317 31.93,0 47.9,-28.125 47.9,-84.3674 v -3.707 h -67.29 c 0,-34.0743 6.78,-51.125 20.32,-51.125 12.32,0 18.48,10.3007 18.48,30.9492" style="fill:#4e4b41;fill-opacity:1;fill-rule:nonzero;stroke:none" id="path72"/>
      <path d="m 2927.13,159.016 v -27.657 c -7.19,5.34 -14.72,8.012 -22.62,8.012 -2.67,0 -5.13,-0.484 -7.38,-1.406 -2.27,-0.922 -4.25,-2.192 -5.97,-3.774 -1.68,-1.562 -3.01,-3.476 -4,-5.671 -0.96,-2.219 -1.44,-4.543 -1.44,-7.02 0,-7.59 6.89,-16.59 20.63,-27.0547 5.53,-4.3242 10.16,-8.3281 13.86,-12.0078 3.7,-3.668 6.51,-7.1484 8.45,-10.4414 4,-6.4648 6.03,-14.6094 6.03,-24.4609 0,-14.2422 -4.18,-25.6875 -12.49,-34.2813 -8.21,-8.52734 -19.23,-12.765619 -33.09,-12.765619 -8.52,0 -17.15,2.519529 -25.86,7.554689 V 36.6563 c 8.51,-6.3672 16.56,-9.5547 24.15,-9.5547 13.45,0 20.19,6.6054 20.19,19.8437 0,4.9258 -1.24,9.1641 -3.7,12.7617 -1.13,1.7539 -2.93,3.7657 -5.41,6.086 -2.46,2.2929 -5.47,4.9023 -9.07,7.7773 -12.41,9.6133 -20.83,17.7227 -25.24,24.3008 -4.32,6.7619 -6.47,14.9099 -6.47,24.4529 0,12.805 3.94,23.305 11.84,31.52 8,8.105 18.44,12.144 31.27,12.144 9.04,0 17.79,-2.336 26.32,-6.972" style="fill:#4e4b41;fill-opacity:1;fill-rule:nonzero;stroke:none" id="path74"/>
      <path d="m 3019.37,240.68 h 104.71 L 3052.63,30.9609 h 67.58 V 2.94922 h -109.32 l 72.05,210.63678 h -63.57 v 27.094" style="fill:#4e4b41;fill-opacity:1;fill-rule:nonzero;stroke:none" id="path76"/>
      <path d="m 3202.6,98.1094 c -1.23,16.7186 -3.13,27.7066 -5.68,32.9456 -2.68,5.855 -6.99,8.754 -12.94,8.754 -6.06,0 -10.37,-2.899 -12.94,-8.754 -2.56,-5.239 -4.47,-16.227 -5.71,-32.9456 z m 1.54,-41.4336 h 27.41 c -2.17,-37.4727 -17.56,-56.187519 -46.2,-56.187519 -8.52,0 -15.84,1.574219 -21.93,4.753909 -6.12,3.17578 -11.15,8.10161 -15.15,14.77731 -4.01,6.6797 -6.99,15.1563 -8.87,25.4297 -1.91,10.2539 -2.84,22.4727 -2.84,36.6289 0,28.1329 3.9,48.9769 11.77,62.5309 7.83,13.539 19.97,20.317 36.41,20.317 31.92,0 47.9,-28.125 47.9,-84.3674 v -3.707 h -67.31 c 0,-34.0743 6.78,-51.125 20.32,-51.125 12.32,0 18.49,10.3007 18.49,30.9492" style="fill:#4e4b41;fill-opacity:1;fill-rule:nonzero;stroke:none" id="path78"/>
      <path d="m 3258.78,162.297 h 29.42 v -18.309 c 8.42,13.961 19.3,20.938 32.65,20.938 12.93,0 22.17,-5.102 27.71,-15.262 3.08,-5.746 4.61,-16.859 4.61,-33.402 V 2.94922 h -29.42 l -0.14,106.54678 c 0,10.777 -1.29,18.406 -3.86,22.926 -2.57,4.523 -6.99,6.769 -13.24,6.769 -3.38,0 -6.23,-0.582 -8.54,-1.785 -2.32,-1.156 -4.19,-3.066 -5.64,-5.676 -1.42,-2.628 -2.48,-6.023 -3.13,-10.23 -0.69,-4.211 -1,-9.41 -1,-15.559 V 2.94922 h -29.42 V 162.297" style="fill:#4e4b41;fill-opacity:1;fill-rule:nonzero;stroke:none" id="path80"/>
      <path d="m 3390,206.938 h 29.38 v -44.641 h 16.03 v -23.41 h -16.03 V 2.94922 H 3390 V 138.887 h -16.19 v 23.41 H 3390 v 44.641" style="fill:#4e4b41;fill-opacity:1;fill-rule:nonzero;stroke:none" id="path82"/>
      <path d="m 3456.46,162.297 h 29.44 v -19.859 c 5.03,8.429 9.99,14.304 14.92,17.691 4.93,3.398 11.47,5.351 19.57,5.859 v -30.8 c -2.06,0.312 -3.79,0.488 -5.23,0.488 -10.57,0 -18.15,-2.746 -22.64,-8.176 -4.43,-5.348 -6.62,-14.684 -6.62,-28.0312 V 2.94922 h -29.44 V 162.297" style="fill:#4e4b41;fill-opacity:1;fill-rule:nonzero;stroke:none" id="path84"/>
      <path d="m 3541.34,162.297 h 29.42 V 55.7422 c 0.21,-9.8633 1.63,-16.875 4.37,-21.0742 2.71,-4.2032 7.27,-6.3399 13.62,-6.3399 6.67,0 11.33,1.8516 14,5.543 2.66,3.9062 4.01,10.6797 4.01,20.3437 v 12.7813 95.3009 h 29.42 V 66.9961 c 0,-22.2656 -1.64,-37.1484 -4.93,-44.6523 -6.88,-14.56646 -21.14,-21.855519 -42.8,-21.855519 -17.04,0 -29.14,4.308599 -36.33,12.929719 -7.2,8.7226 -10.78,23.2383 -10.78,43.5547 V 162.297" style="fill:#4e4b41;fill-opacity:1;fill-rule:nonzero;stroke:none" id="path86"/>
      <path d="m 3669.44,162.297 h 29.39 V 142.59 c 8.1,14.883 18.88,22.336 32.33,22.336 14.69,0 24.63,-7.453 29.88,-22.336 7.79,14.883 18.87,22.336 33.26,22.336 11.17,0 19.73,-2.977 25.65,-8.86 5.9,-5.914 8.82,-14.613 8.82,-26.121 V 2.94922 h -29.55 V 107.781 c 0,12.008 -1.13,20.094 -3.39,24.192 -2.15,4.211 -6.37,6.289 -12.63,6.289 -7.08,0 -11.91,-2.137 -14.47,-6.453 -2.47,-4.211 -3.69,-12.215 -3.69,-24.028 V 2.94922 h -30.49 V 107.781 c 0,5.649 -0.26,10.446 -0.81,14.332 -0.6,3.907 -1.56,7.024 -2.89,9.387 -1.33,2.352 -3.08,4.066 -5.23,5.164 -2.15,1.055 -4.82,1.598 -8,1.598 -6.79,0 -11.62,-2.289 -14.48,-6.903 -2.89,-4.621 -4.31,-12.492 -4.31,-23.578 V 2.94922 h -29.39 V 162.297" style="fill:#4e4b41;fill-opacity:1;fill-rule:nonzero;stroke:none" id="path88"/>
      <path d="m 1951.6,609.172 v 333.344 h 333.33 V 609.172 H 1951.6" style="fill:#f68712;fill-opacity:1;fill-rule:nonzero;stroke:none" id="path90"/>
      <path d="m 2430.83,542.734 v -19.921 c -5.68,2.769 -10.44,4.156 -14.28,4.156 -5.25,0 -9.76,-1.301 -13.52,-3.895 -3.77,-2.59 -6.88,-6.586 -9.33,-11.984 -2.45,-5.402 -4.26,-12.238 -5.44,-20.508 -1.17,-8.277 -1.76,-18.062 -1.76,-29.355 0,-40.637 10.41,-60.95 31.22,-60.95 3.63,0 8,1.133 13.11,3.411 v -20.352 c -5.32,-2.984 -11.29,-4.477 -17.9,-4.477 -33.31,0 -49.97,27.207 -49.97,81.621 0,29.407 4.06,51.282 12.2,65.633 8.13,14.348 20.58,21.524 37.35,21.524 6.18,0 12.28,-1.637 18.32,-4.903" style="fill:#4e4b41;fill-opacity:1;fill-rule:nonzero;stroke:none" id="path92"/>
      <path d="m 2448.3,561.914 h 20.35 V 380.883 h -20.35 v 181.031" style="fill:#4e4b41;fill-opacity:1;fill-rule:nonzero;stroke:none" id="path94"/>
      <path d="m 2508.72,436.504 c 0,-14.492 0.96,-24.613 2.88,-30.367 1.98,-5.754 5.47,-8.633 10.44,-8.633 4.54,0 7.85,2.984 9.91,8.953 2.06,6.395 3.09,16.231 3.09,29.516 0,13.351 -1.03,23.226 -3.09,29.617 -2.06,5.969 -5.37,8.953 -9.91,8.953 -4.83,0 -8.27,-2.844 -10.33,-8.523 -1.99,-5.258 -2.99,-15.098 -2.99,-29.516 z m 46.04,54.664 V 380.883 h -20.36 v 14.172 c -2.92,-6.035 -5.83,-10.192 -8.74,-12.465 -2.91,-2.274 -6.74,-3.41 -11.5,-3.41 -9.17,0 -15.88,4.687 -20.14,14.062 -4.26,9.379 -6.39,24.082 -6.39,44.117 0,19.106 2.13,33.153 6.39,42.137 4.26,8.984 10.97,13.477 20.14,13.477 8.38,0 15.13,-4.754 20.24,-14.278 v 12.473 h 20.36" style="fill:#4e4b41;fill-opacity:1;fill-rule:nonzero;stroke:none" id="path96"/>
      <path d="m 2577.87,491.168 h 20.35 v -73.734 c 0.15,-6.825 1.16,-11.688 3.04,-14.602 1.88,-2.91 5.03,-4.363 9.43,-4.363 4.62,0 7.85,1.273 9.7,3.832 1.85,2.699 2.76,7.387 2.76,14.066 v 8.844 65.957 h 20.36 v -65.957 c 0,-15.414 -1.14,-25.719 -3.41,-30.898 -4.76,-10.09 -14.63,-15.133 -29.62,-15.133 -11.79,0 -20.18,2.984 -25.15,8.949 -4.97,6.035 -7.46,16.09 -7.46,30.152 v 72.887" style="fill:#4e4b41;fill-opacity:1;fill-rule:nonzero;stroke:none" id="path98"/>
      <path d="m 2709.15,488.898 v -19.152 c -4.98,3.695 -10.19,5.543 -15.66,5.543 -1.85,0 -3.56,-0.316 -5.12,-0.957 -1.56,-0.641 -2.93,-1.512 -4.1,-2.609 -1.17,-1.102 -2.1,-2.41 -2.78,-3.942 -0.67,-1.519 -1,-3.136 -1,-4.84 0,-5.25 4.75,-11.496 14.28,-18.73 3.83,-2.981 7.03,-5.75 9.59,-8.305 2.55,-2.551 4.51,-4.965 5.85,-7.234 2.78,-4.473 4.16,-10.113 4.16,-16.922 0,-9.863 -2.88,-17.773 -8.63,-23.738 -5.68,-5.887 -13.32,-8.832 -22.91,-8.832 -5.9,0 -11.86,1.75 -17.9,5.25 v 19.789 c 5.89,-4.403 11.47,-6.606 16.73,-6.606 9.31,0 13.96,4.575 13.96,13.731 0,3.402 -0.85,6.347 -2.56,8.832 -0.78,1.207 -2.02,2.605 -3.73,4.203 -1.7,1.598 -3.8,3.391 -6.28,5.379 -8.61,6.668 -14.43,12.273 -17.48,16.812 -2.98,4.684 -4.48,10.325 -4.48,16.926 0,8.867 2.74,16.145 8.21,21.817 5.53,5.605 12.75,8.41 21.63,8.41 6.25,0 12.32,-1.61 18.22,-4.825" style="fill:#4e4b41;fill-opacity:1;fill-rule:nonzero;stroke:none" id="path100"/>
      <path d="m 2734.18,522.066 h 20.35 v -30.898 h 11.09 v -16.195 h -11.09 v -94.09 h -20.35 v 94.09 H 2723 v 16.195 h 11.18 v 30.898" style="fill:#4e4b41;fill-opacity:1;fill-rule:nonzero;stroke:none" id="path102"/>
      <path d="m 2780.21,561.914 h 20.35 v -83.426 c 5.83,9.657 13.36,14.485 22.58,14.485 8.96,0 15.36,-3.516 19.18,-10.547 2.14,-3.981 3.21,-11.684 3.21,-23.117 v -78.426 h -20.35 l -0.11,73.734 c 0,7.457 -0.89,12.75 -2.67,15.875 -1.77,3.125 -4.83,4.688 -9.16,4.688 -2.34,0 -4.31,-0.41 -5.92,-1.227 -1.59,-0.812 -2.89,-2.129 -3.88,-3.937 -1,-1.813 -1.73,-4.176 -2.19,-7.086 -0.46,-2.914 -0.69,-6.5 -0.69,-10.762 v -71.285 h -20.35 v 181.031" style="fill:#4e4b41;fill-opacity:1;fill-rule:nonzero;stroke:none" id="path104"/>
      <path d="m 2885.48,436.504 c 0,-14.492 0.96,-24.613 2.88,-30.367 1.98,-5.754 5.47,-8.633 10.44,-8.633 4.54,0 7.85,2.984 9.91,8.953 2.06,6.395 3.09,16.231 3.09,29.516 0,13.351 -1.03,23.226 -3.09,29.617 -2.06,5.969 -5.37,8.953 -9.91,8.953 -4.84,0 -8.27,-2.844 -10.33,-8.523 -2,-5.258 -2.99,-15.098 -2.99,-29.516 z m 46.03,54.664 V 380.883 h -20.35 v 14.172 c -2.92,-6.035 -5.83,-10.192 -8.74,-12.465 -2.91,-2.274 -6.75,-3.41 -11.5,-3.41 -9.17,0 -15.88,4.687 -20.14,14.062 -4.27,9.379 -6.4,24.082 -6.4,44.117 0,19.106 2.13,33.153 6.4,42.137 4.26,8.984 10.97,13.477 20.14,13.477 8.38,0 15.12,-4.754 20.24,-14.278 v 12.473 h 20.35" style="fill:#4e4b41;fill-opacity:1;fill-rule:nonzero;stroke:none" id="path106"/>
      <path d="m 2954.63,561.914 h 20.35 V 380.883 h -20.35 v 181.031" style="fill:#4e4b41;fill-opacity:1;fill-rule:nonzero;stroke:none" id="path108"/>
      <path d="m 3045.73,445.453 h 65.64 v -16.195 h -65.64 v 16.195" style="fill:#4e4b41;fill-opacity:1;fill-rule:nonzero;stroke:none" id="path110"/>
      <path d="m 3222.61,467.402 h 40.28 v -6.39 c 0,-32.035 -2.81,-53.668 -8.42,-64.887 -5.54,-11.512 -15.92,-17.266 -31.11,-17.266 -15.7,0 -26.89,6.395 -33.57,19.176 -6.61,12.789 -9.91,34.274 -9.91,64.465 0,34.527 3.63,57.504 10.87,68.941 6.82,10.727 17.3,16.086 31.44,16.086 10.79,0 19.21,-2.589 25.25,-7.777 6.1,-5.258 10.87,-13.887 14.28,-25.887 l -20.68,-8.633 c -0.92,4.333 -1.95,7.973 -3.08,10.922 -1.14,2.946 -2.38,5.235 -3.73,6.871 -2.71,3.34 -6.75,5.008 -12.15,5.008 -7.39,0 -12.43,-4.543 -15.13,-13.636 -2.7,-9.52 -4.05,-26.606 -4.05,-51.254 0,-24.934 1.39,-41.801 4.15,-50.614 2.77,-8.804 8,-13.211 15.66,-13.211 7.04,0 11.98,3.125 14.82,9.375 2.91,6.68 4.36,17.407 4.36,32.184 v 4.473 3.304 h -19.28 v 18.75" style="fill:#4e4b41;fill-opacity:1;fill-rule:nonzero;stroke:none" id="path112"/>
      <path d="m 3333.32,533.145 c 3.26,0 6.1,-1.207 8.53,-3.622 2.41,-2.414 3.62,-5.328 3.62,-8.738 0,-3.406 -1.21,-6.32 -3.62,-8.734 -2.43,-2.418 -5.34,-3.621 -8.74,-3.621 -1.7,0 -3.32,0.316 -4.85,0.957 -1.53,0.636 -2.84,1.527 -3.94,2.664 -1.11,1.133 -1.98,2.465 -2.61,3.996 -0.65,1.527 -0.97,3.144 -0.97,4.848 0,3.406 1.21,6.285 3.63,8.628 2.42,2.415 5.4,3.622 8.95,3.622 z m -5.54,-97.497 c 0,14.493 -0.96,24.582 -2.88,30.266 -1.91,5.75 -5.33,8.629 -10.22,8.629 -4.84,0 -8.28,-2.844 -10.34,-8.523 -1.92,-5.684 -2.88,-15.594 -2.88,-29.731 0,-14.137 0.96,-24.008 2.88,-29.617 2.06,-5.684 5.5,-8.527 10.34,-8.527 4.82,0 8.2,2.808 10.11,8.418 2,5.253 2.99,14.953 2.99,29.085 z m -31.86,97.497 c 3.34,0 6.22,-1.207 8.63,-3.622 2.41,-2.414 3.62,-5.328 3.62,-8.738 0,-3.406 -1.21,-6.32 -3.62,-8.734 -2.41,-2.418 -5.36,-3.621 -8.85,-3.621 -3.41,0 -6.32,1.203 -8.73,3.621 -2.42,2.414 -3.62,5.359 -3.62,8.844 0,3.406 1.2,6.285 3.62,8.628 2.41,2.415 5.39,3.622 8.95,3.622 z m 52.96,-98.028 c 0,-37.289 -11.55,-55.937 -34.63,-55.937 -23.09,0 -34.63,18.929 -34.63,56.793 0,38.004 11.5,57 34.52,57 5.97,0 11.13,-1.133 15.51,-3.407 4.36,-2.277 7.97,-5.793 10.81,-10.546 2.84,-4.762 4.95,-10.762 6.34,-18.008 1.38,-7.246 2.08,-15.875 2.08,-25.895" style="fill:#4e4b41;fill-opacity:1;fill-rule:nonzero;stroke:none" id="path114"/>
      <path d="m 3370.08,522.066 h 20.35 v -30.898 h 11.08 v -16.195 h -11.08 v -94.09 h -20.35 v 94.09 h -11.18 v 16.195 h 11.18 v 30.898" style="fill:#4e4b41;fill-opacity:1;fill-rule:nonzero;stroke:none" id="path116"/>
      <path d="m 3418.55,522.066 h 20.36 v -30.898 h 11.08 v -16.195 h -11.08 v -94.09 h -20.36 v 94.09 h -11.18 v 16.195 h 11.18 v 30.898" style="fill:#4e4b41;fill-opacity:1;fill-rule:nonzero;stroke:none" id="path118"/>
      <path d="m 3464.58,491.168 h 20.46 V 380.883 h -20.46 z m 9.59,46.879 c 3.69,0 6.89,-1.348 9.59,-4.047 2.7,-2.699 4.05,-5.934 4.05,-9.699 0,-3.832 -1.35,-7.106 -4.05,-9.805 -2.7,-2.699 -5.97,-4.047 -9.8,-4.047 -3.83,0 -7.1,1.348 -9.8,4.047 -2.63,2.633 -3.95,5.934 -3.95,9.914 0,3.692 1.35,6.891 4.06,9.59 2.91,2.699 6.21,4.047 9.9,4.047" style="fill:#4e4b41;fill-opacity:1;fill-rule:nonzero;stroke:none" id="path120"/>
      <path d="m 3507.95,491.168 h 20.35 v -12.68 c 5.83,9.657 13.36,14.485 22.59,14.485 8.95,0 15.35,-3.516 19.18,-10.547 2.14,-3.981 3.2,-11.684 3.2,-23.117 v -78.426 h -20.35 l -0.11,73.734 c 0,7.457 -0.89,12.75 -2.66,15.875 -1.78,3.125 -4.84,4.688 -9.16,4.688 -2.35,0 -4.32,-0.41 -5.92,-1.227 -1.59,-0.812 -2.89,-2.129 -3.89,-3.937 -0.99,-1.813 -1.73,-4.176 -2.19,-7.086 -0.45,-2.914 -0.69,-6.5 -0.69,-10.762 v -71.285 h -20.35 v 110.285" style="fill:#4e4b41;fill-opacity:1;fill-rule:nonzero;stroke:none" id="path122"/>
      <path d="m 3639.33,435.012 c 0,26.355 -4.54,39.531 -13.64,39.531 -4.33,0 -7.5,-2.965 -9.48,-8.898 -1.99,-5.934 -2.99,-15.434 -2.99,-28.5 0,-13.852 1.04,-24.047 3.1,-30.582 2.13,-6.04 5.67,-9.059 10.65,-9.059 4.69,0 7.92,2.703 9.7,8.101 1.77,5.04 2.66,14.844 2.66,29.407 z m -0.32,56.156 h 20.46 V 377.367 c 0,-13.637 -1.35,-23.086 -4.05,-28.344 -4.97,-9.66 -14.95,-14.488 -29.94,-14.488 -9.87,0 -17.62,2.805 -23.23,8.414 -5.69,5.688 -8.52,13.321 -8.52,22.91 l 0.1,3.411 h 19.71 c 0,-11.719 4.37,-17.579 13.11,-17.579 4.76,0 7.99,1.489 9.7,4.469 1.78,2.844 2.66,8.492 2.66,16.945 v 21.208 c -4.33,-10.09 -10.97,-15.133 -19.93,-15.133 -9.23,0 -16.03,4.472 -20.4,13.422 -4.36,8.953 -6.55,22.945 -6.55,41.984 0,20.176 2.09,35.059 6.29,44.644 4.11,9.165 10.96,13.743 20.55,13.743 4.56,0 8.25,-1.098 11.09,-3.301 2.84,-2.199 5.82,-6.106 8.95,-11.719 v 13.215" style="fill:#4e4b41;fill-opacity:1;fill-rule:nonzero;stroke:none" id="path124"/>
      <path d="m 3724.04,446.734 c -0.86,11.579 -2.16,19.18 -3.94,22.801 -1.85,4.051 -4.84,6.074 -8.96,6.074 -4.19,0 -7.17,-2.023 -8.94,-6.074 -1.78,-3.621 -3.1,-11.222 -3.95,-22.801 z m 1.07,-28.664 h 18.96 c -1.49,-25.925 -12.15,-38.89 -31.96,-38.89 -5.9,0 -10.97,1.101 -15.19,3.3 -4.22,2.204 -7.72,5.61 -10.49,10.231 -2.78,4.617 -4.82,10.477 -6.13,17.582 -1.32,7.102 -1.97,15.559 -1.97,25.355 0,19.465 2.71,33.887 8.15,43.262 5.43,9.375 13.83,14.063 25.2,14.063 22.09,0 33.13,-19.461 33.13,-58.387 v -2.559 h -46.56 c 0,-23.586 4.69,-35.371 14.06,-35.371 8.53,0 12.8,7.137 12.8,21.414" style="fill:#4e4b41;fill-opacity:1;fill-rule:nonzero;stroke:none" id="path126"/>
      <path d="m 3762.93,491.168 h 20.35 v -12.68 c 5.83,9.657 13.36,14.485 22.59,14.485 8.95,0 15.35,-3.516 19.18,-10.547 2.14,-3.981 3.2,-11.684 3.2,-23.117 v -78.426 h -20.35 l -0.11,73.734 c 0,7.457 -0.89,12.75 -2.66,15.875 -1.78,3.125 -4.84,4.688 -9.16,4.688 -2.35,0 -4.32,-0.41 -5.92,-1.227 -1.59,-0.812 -2.89,-2.129 -3.89,-3.937 -0.99,-1.813 -1.73,-4.176 -2.19,-7.086 -0.45,-2.914 -0.69,-6.5 -0.69,-10.762 v -71.285 h -20.35 v 110.285" style="fill:#4e4b41;fill-opacity:1;fill-rule:nonzero;stroke:none" id="path128"/>
    </g>
  </g>
</svg>