<?xml version="1.0" encoding="UTF-8" standalone="no"?>
<!-- Generator: Adobe Illustrator 15.0.2, SVG Export Plug-In . SVG Version: 6.00 Build 0)  -->
<svg xmlns:dc="http://purl.org/dc/elements/1.1/" xmlns:cc="http://creativecommons.org/ns#" xmlns:rdf="http://www.w3.org/1999/02/22-rdf-syntax-ns#" xmlns:svg="http://www.w3.org/2000/svg" xmlns="http://www.w3.org/2000/svg" xmlns:sodipodi="http://sodipodi.sourceforge.net/DTD/sodipodi-0.dtd" xmlns:inkscape="http://www.inkscape.org/namespaces/inkscape" version="1.1" x="0px" y="0px" width="366.90701" height="68.264999" viewBox="0 0 366.90702 68.265002" xml:space="preserve" id="svg4136" inkscape:version="0.91 r13725" sodipodi:docname="Logo_TUC_de_CMYK.svg">
  <metadata id="metadata4189"/>
  <defs id="defs4187"/>
  <g id="Background" transform="translate(-62.984,-34.093)"/>
  <g id="Guides" transform="translate(-62.984,-34.093)"/>
  <g id="Foreground" transform="translate(-62.984,-34.093)">
    <g id="g4141">
      <g id="g4143">
        <rect x="118.323" y="89.431999" width="12.409" height="12.408" id="rect4145" style="fill:#808080;fill-opacity:1"/>
      </g>
      <polygon points="62.984,101.842 113.796,101.842 113.796,84.904 130.733,84.9 130.733,34.093 62.984,34.093 " id="polygon4147" style="fill:#008c4f;fill-opacity:1"/>
      <path d="m 80.022,55.955 c 0.394,-0.112 0.45,0.194 0.967,0.102 0.541,-0.096 0.761,-0.286 0.761,-0.286 0,0 -0.411,0.66 -0.845,0.699 -0.341,0.031 -0.522,-0.128 -0.818,-0.134 -0.348,-0.006 -0.623,0.082 -0.623,0.082 0,0 0.162,-0.349 0.558,-0.463 z" id="path4149" inkscape:connector-curvature="0" style="fill:#ffffff"/>
      <path d="m 113.674,56.029 c -0.394,-0.113 -0.45,0.194 -0.967,0.102 -0.541,-0.096 -0.76,-0.285 -0.76,-0.285 0,0 0.41,0.659 0.845,0.699 0.341,0.031 0.522,-0.128 0.818,-0.134 0.348,-0.007 0.623,0.082 0.623,0.082 0,0 -0.162,-0.35 -0.559,-0.464 z" id="path4151" inkscape:connector-curvature="0" style="fill:#ffffff"/>
      <path d="m 91.014,80.662 c 1.246,1.005 3.366,1.809 5.946,1.809 2.592,0 4.988,-0.81 6.231,-1.822 -1.344,-0.383 -3.655,-0.736 -6.254,-0.799 -2.382,-0.057 -4.61,0.408 -5.923,0.812 z" id="path4153" inkscape:connector-curvature="0" style="fill:#ffffff"/>
      <path d="m 86.76,54.942 -0.038,20.481 c -0.814,-0.41 -1.972,-0.64 -2.46,-0.773 -0.036,-0.185 -0.545,-1.39 -0.507,-1.534 0.036,-0.146 0.435,-0.985 0.108,-2.299 -0.295,-1.184 -2.286,-2.841 -3.732,-3.55 l -0.13,0.068 c 0.32,-0.545 0.494,-1.254 0.75,-1.118 0.506,0.267 1.368,1.37 1.606,1.29 0.237,-0.079 0.083,-0.506 0.401,-0.427 l 0.546,0.95 c 0.498,0.343 0.873,0.827 1.007,0.898 0.13,0.071 0.405,0.21 0.74,0.225 0.334,0.015 0.455,-0.33 0.455,-0.33 0,0 -0.396,0.009 -0.65,-0.157 -0.218,-0.144 -0.363,-0.549 -0.063,-0.537 0.451,0.019 0.843,0.405 1.377,-0.026 0.283,-0.231 0.275,-0.429 0.275,-0.429 0,0 -0.414,0.136 -0.717,0.122 -0.303,-0.012 -0.706,-0.29 -0.542,-0.523 0.177,-0.252 0.779,-0.02 1.114,-0.354 0.379,-0.377 0.239,-0.702 0.239,-0.702 0,0 -0.071,0.194 -0.606,0.287 -0.535,0.093 -0.601,-0.068 -0.843,-0.223 -0.215,-0.134 -0.46,-0.417 -0.46,-0.417 0,0 0.057,-0.292 0.245,-0.464 0.189,-0.173 0.627,-0.129 0.627,-0.129 0,0 -0.32,-0.35 -0.553,-0.361 -0.232,-0.009 -0.508,-0.054 -0.993,0.391 -0.231,0.211 -0.405,0.41 -0.522,0.56 l -1.017,-1.055 c 0,0 -0.894,-0.572 -0.72,-0.834 0.445,-0.666 0.849,-1.417 1.015,-1.998 0.105,-0.368 -0.35,-1.526 -0.828,-2.159 0.449,-0.489 1.47,-1.609 1.594,-1.854 0.104,-0.208 0.304,-0.742 1.287,-1.883 l 0.655,-0.6 c 0.354,-0.563 0.868,-0.999 0.941,-1.15 0.069,-0.145 0.212,-0.454 0.212,-0.824 0,-0.37 -0.386,-0.486 -0.386,-0.486 0,0 0.029,0.438 -0.141,0.723 -0.147,0.248 -0.586,0.425 -0.586,0.095 0,-0.497 0.405,-0.946 -0.097,-1.513 -0.266,-0.3 -0.482,-0.282 -0.482,-0.282 0,0 0.168,0.449 0.168,0.783 0,0.333 -0.285,0.79 -0.55,0.621 -0.286,-0.182 -0.06,-0.854 -0.443,-1.208 -0.433,-0.399 -0.781,-0.23 -0.781,-0.23 0,0 0.216,0.069 0.344,0.652 0.128,0.584 -0.046,0.666 -0.204,0.94 -0.14,0.242 -0.439,0.524 -0.439,0.524 0,0 -0.324,-0.05 -0.522,-0.248 -0.199,-0.199 -0.171,-0.684 -0.171,-0.684 0,0 -0.37,0.37 -0.37,0.626 0,0.255 -0.036,0.562 0.476,1.073 0.245,0.245 0.471,0.425 0.641,0.548 l -2.431,2.731 c -0.131,0.022 -0.547,0.079 -0.811,0.013 -0.318,-0.079 -0.896,-0.491 -0.341,-0.491 0.554,0 0.829,-0.617 0.8,-0.737 -0.056,-0.236 -0.782,-0.401 -1.1,-0.481 -0.316,-0.078 -0.24,-1.453 -0.124,-1.569 0.118,-0.118 1.56,0.48 1.605,0.371 0.062,-0.145 0.376,-0.81 0.05,-0.992 -0.078,-0.043 -0.162,-0.072 -0.086,-0.238 0.08,-0.171 0.064,-0.368 0.018,-0.414 -0.161,-0.16 -0.931,-0.557 -1.168,-0.636 -0.239,-0.08 -0.692,-0.385 -1.362,-0.658 l 0.272,-0.004 c 0,0 0.116,-0.209 0.147,-0.289 0.059,-0.149 0.121,-0.275 -0.005,-0.4 -0.125,-0.126 -0.359,-0.216 -0.622,-0.216 -0.367,0 -0.426,0.571 -0.627,0.924 -0.486,0.121 -0.577,0.151 -0.577,0.151 0,0 -0.445,-0.361 -0.767,-0.511 -0.465,-0.213 -1.106,0.209 -1.152,0.682 -0.06,0.622 0.789,0.427 0.512,1.384 -0.069,0.24 -0.939,1.577 -0.711,1.577 0.903,0 1.333,1 1.295,1.563 -0.091,1.308 -1.753,3.175 -1.299,2.963 0.433,-0.201 2.013,-0.041 1.696,0.515 -0.316,0.555 -1.968,3.66 -1.573,3.263 0.286,-0.287 1.128,-0.341 0.987,0.123 -0.764,2.493 -1.194,3.522 -2.065,5.186 -1.188,0.159 -2.285,-1.493 -1.221,-3.088 0.138,-0.517 1.477,-2.633 1.557,-3.899 0.078,-1.269 -0.595,-2.994 -0.595,-2.994 0.872,-0.633 0.223,-3.808 -1.929,-4.821 -0.04,0.123 0.519,0.493 0.198,1.211 -0.164,0.478 -0.625,1.279 -0.395,2.227 0.261,1.523 1.359,1.161 1.526,1.583 1.63,4.044 -1.869,6.059 -1.79,8.594 0.08,2.538 2.854,2.617 2.854,2.617 0.265,0.354 0.263,0.357 0.263,0.357 0.386,0.511 0.81,1.093 0.848,1.253 0.073,0.293 -0.555,1.666 -0.467,2.174 0.062,0.356 1.605,2.066 1.968,2.577 0.301,0.563 -0.393,1.819 0.694,2.793 0.065,-0.545 0.333,-1.266 0.384,-1.328 0.817,-0.051 1.23,0.522 1.773,1.943 0.675,-0.685 0.591,-1.744 0.252,-2.296 0.586,0.061 0.905,0.23 1.896,0.826 0.134,-1.26 -1.215,-1.939 -1.215,-1.939 0,0 0.882,-0.049 1.315,-0.018 -0.038,-0.146 -0.472,-0.474 -0.836,-0.656 -0.362,-0.184 -2.141,0 -2.141,0 l -1.088,-2.009 c 0,0 1.088,-1.277 1.197,-1.789 0.11,-0.512 -0.544,-1.714 -0.145,-1.897 0.399,-0.182 1.593,0.186 2.142,0.766 0.575,0.609 -0.586,2.312 0.361,2.445 1.561,0.219 2.578,3.031 2.578,3.031 0,0 -0.074,0.619 -0.11,0.767 -0.036,0.146 0.726,1.276 0.726,1.276 l 0.726,-1.459 c 0.131,-0.265 1.073,-0.352 1.804,-0.525 l -0.006,3.75 c 0,0 1.079,-0.504 2.831,-1.011 l 0,-24.767 -2.786,0 z m -8.543,-0.84 c -0.242,0 -0.437,-0.191 -0.437,-0.425 0,-0.236 0.195,-0.427 0.437,-0.427 0.242,0 0.438,0.191 0.438,0.427 -0.001,0.234 -0.197,0.425 -0.438,0.425 z" id="path4155" inkscape:connector-curvature="0" style="fill:#ffffff"/>
      <path d="m 120.967,59.541 c 0.167,-0.422 1.266,-0.06 1.526,-1.584 0.23,-0.947 -0.23,-1.748 -0.395,-2.225 -0.321,-0.718 0.237,-1.088 0.197,-1.211 -2.151,1.014 -2.8,4.188 -1.929,4.822 0,0 -0.673,1.724 -0.594,2.993 0.08,1.267 1.419,3.382 1.557,3.9 1.063,1.595 -0.033,3.247 -1.221,3.088 -0.872,-1.664 -1.301,-2.692 -2.065,-5.186 -0.142,-0.463 0.701,-0.41 0.986,-0.124 0.396,0.397 -1.256,-2.707 -1.572,-3.262 -0.317,-0.555 1.263,-0.715 1.696,-0.514 0.454,0.211 -1.208,-1.656 -1.299,-2.964 -0.04,-0.562 0.392,-1.563 1.294,-1.563 0.228,0 -0.642,-1.337 -0.712,-1.577 -0.277,-0.957 0.572,-0.762 0.513,-1.384 -0.046,-0.473 -0.687,-0.895 -1.153,-0.682 -0.321,0.149 -0.767,0.511 -0.767,0.511 0,0 -0.091,-0.03 -0.577,-0.151 -0.201,-0.354 -0.259,-0.924 -0.626,-0.924 -0.263,0 -0.497,0.091 -0.622,0.216 -0.126,0.125 -0.064,0.251 -0.005,0.401 0.032,0.079 0.146,0.289 0.146,0.289 l 0.272,0.004 c -0.67,0.273 -1.123,0.578 -1.362,0.658 -0.237,0.079 -1.008,0.476 -1.168,0.636 -0.046,0.045 -0.062,0.242 0.018,0.413 0.076,0.167 -0.009,0.196 -0.086,0.239 -0.326,0.182 -0.012,0.846 0.049,0.991 0.046,0.109 1.487,-0.488 1.605,-0.371 0.115,0.117 0.192,1.492 -0.125,1.57 -0.317,0.08 -1.044,0.245 -1.1,0.48 -0.029,0.12 0.246,0.737 0.8,0.737 0.556,0 -0.023,0.412 -0.341,0.491 -0.264,0.066 -0.68,0.009 -0.811,-0.013 l -2.431,-2.732 c 0.17,-0.124 0.396,-0.304 0.641,-0.549 0.512,-0.511 0.476,-0.817 0.476,-1.072 0,-0.257 -0.37,-0.626 -0.37,-0.626 0,0 0.027,0.485 -0.171,0.684 -0.199,0.198 -0.523,0.248 -0.523,0.248 0,0 -0.299,-0.283 -0.438,-0.524 -0.158,-0.274 -0.332,-0.356 -0.204,-0.94 0.127,-0.583 0.344,-0.652 0.344,-0.652 0,0 -0.349,-0.169 -0.781,0.229 -0.384,0.353 -0.158,1.026 -0.444,1.208 -0.265,0.168 -0.55,-0.287 -0.55,-0.621 0,-0.334 0.168,-0.783 0.168,-0.783 0,0 -0.217,-0.017 -0.483,0.283 -0.501,0.567 -0.096,1.016 -0.096,1.513 0,0.33 -0.439,0.153 -0.586,-0.095 -0.171,-0.286 -0.141,-0.724 -0.141,-0.724 0,0 -0.386,0.117 -0.386,0.486 0,0.37 0.143,0.68 0.212,0.824 0.072,0.151 0.587,0.587 0.94,1.15 l 0.655,0.6 c 0.983,1.141 1.182,1.674 1.287,1.882 0.124,0.246 1.145,1.366 1.594,1.855 -0.478,0.633 -0.934,1.79 -0.828,2.159 0.166,0.581 0.571,1.332 1.015,1.998 0.174,0.262 -0.719,0.834 -0.719,0.834 l -1.018,1.056 c -0.117,-0.15 -0.291,-0.349 -0.523,-0.561 -0.485,-0.444 -0.761,-0.4 -0.993,-0.391 -0.233,0.01 -0.553,0.361 -0.553,0.361 0,0 0.438,-0.044 0.627,0.129 0.188,0.172 0.245,0.464 0.245,0.464 0,0 -0.244,0.283 -0.459,0.417 -0.242,0.155 -0.309,0.316 -0.843,0.223 -0.535,-0.092 -0.606,-0.287 -0.606,-0.287 0,0 -0.14,0.324 0.239,0.702 0.335,0.334 0.937,0.102 1.113,0.354 0.164,0.233 -0.239,0.51 -0.542,0.522 -0.303,0.015 -0.717,-0.121 -0.717,-0.121 0,0 -0.007,0.197 0.276,0.429 0.533,0.431 0.925,0.045 1.376,0.026 0.3,-0.013 0.156,0.393 -0.063,0.537 -0.254,0.166 -0.651,0.157 -0.651,0.157 0,0 0.121,0.344 0.455,0.33 0.336,-0.014 0.61,-0.153 0.741,-0.225 0.134,-0.072 0.509,-0.556 1.007,-0.899 l 0.546,-0.95 c 0.318,-0.08 0.165,0.348 0.402,0.427 0.238,0.08 1.101,-1.023 1.606,-1.291 0.255,-0.135 0.43,0.574 0.75,1.118 l -0.13,-0.068 c -1.446,0.708 -3.438,2.366 -3.732,3.549 -0.326,1.314 0.072,2.153 0.108,2.3 0.038,0.145 -0.471,1.35 -0.507,1.534 -0.489,0.134 -1.646,0.364 -2.46,0.773 l -0.037,-20.481 -2.784,0 0,24.769 c 1.752,0.507 2.831,1.01 2.831,1.01 l -0.007,-3.749 c 0.731,0.174 1.673,0.262 1.804,0.525 l 0.726,1.459 c 0,0 0.762,-1.131 0.726,-1.275 -0.035,-0.148 -0.109,-0.768 -0.109,-0.768 0,0 1.017,-2.813 2.578,-3.031 0.948,-0.133 -0.213,-1.836 0.362,-2.444 0.548,-0.58 1.742,-0.947 2.142,-0.766 0.399,0.182 -0.254,1.386 -0.145,1.896 0.108,0.512 1.196,1.789 1.196,1.789 l -1.088,2.009 c 0,0 -1.779,-0.184 -2.142,0 -0.363,0.183 -0.797,0.511 -0.835,0.656 0.433,-0.031 1.314,0.018 1.314,0.018 0,0 -1.349,0.68 -1.215,1.939 0.992,-0.595 1.311,-0.765 1.897,-0.826 -0.339,0.552 -0.423,1.611 0.251,2.295 0.543,-1.42 0.956,-1.992 1.773,-1.942 0.051,0.063 0.318,0.784 0.384,1.328 1.086,-0.974 0.393,-2.229 0.694,-2.794 0.362,-0.51 1.906,-2.22 1.968,-2.575 0.088,-0.509 -0.541,-1.882 -0.467,-2.175 0.038,-0.16 0.462,-0.742 0.848,-1.253 0,0 -0.002,-0.004 0.263,-0.358 0,0 2.774,-0.079 2.854,-2.617 0.083,-2.535 -3.416,-4.549 -1.786,-8.593 z m -5.487,-5.365 c -0.242,0 -0.438,-0.191 -0.438,-0.425 0,-0.237 0.196,-0.428 0.438,-0.428 0.242,0 0.437,0.191 0.437,0.428 0,0.234 -0.195,0.425 -0.437,0.425 z" id="path4157" inkscape:connector-curvature="0" style="fill:#ffffff"/>
      <path d="m 108.026,42.537 -1.659,1.659 1.633,1.634 -4.866,4.865 0.005,-1.866 -3.731,0 0,5.998 -5.085,0 0,-5.998 -3.703,0 0,1.71 -4.728,-4.268 2.046,-2.045 -1.661,-1.661 -5.327,5.327 1.66,1.661 2.123,-2.122 5.886,5.425 -0.015,2.085 0,24.485 c 1.764,-0.433 3.999,-0.794 6.428,-0.737 2.363,0.059 4.458,0.405 6.101,0.792 l 0,-24.594 0,-1.874 6.024,-6.025 2.536,2.535 0.184,-1.66 0.173,-1.303 -4.024,-4.023 z M 96.913,76.984 c 0,0 -2.535,-1.046 -2.881,-4.148 -0.422,-3.766 0.975,-3.773 1.748,-5.792 0.792,-2.068 -0.998,-4.063 -0.998,-4.063 0,0 2.507,0.298 3.317,2.804 0.625,1.929 -0.602,2.41 -0.679,4.096 -0.054,1.235 1.495,1.819 1.624,3.349 0.202,2.348 -2.131,3.754 -2.131,3.754 z" id="path4159" inkscape:connector-curvature="0" style="fill:#ffffff"/>
      <g id="g4161">
        <path d="m 156.058,95.865 c 0,4.453 -0.192,4.214 4.118,4.74 l 0,1.245 -12.882,0 0,-1.245 c 4.31,-0.526 4.119,-0.287 4.119,-4.74 l 0,-26.587 -4.31,0 c -4.167,0 -5.125,2.633 -6.705,5.794 l -1.197,0 1.292,-7.327 26.483,0 1.293,7.327 -1.197,0 c -1.58,-3.161 -2.538,-5.794 -6.705,-5.794 l -4.31,0 0,26.587 z" id="path4163" style="fill:#808080;fill-opacity:1" inkscape:connector-curvature="0"/>
        <path d="m 178.331,87.842 c 0,6.704 1.82,11.828 8.955,11.828 6.561,0 10.009,-4.405 10.009,-12.066 l 0,-13.313 c 0,-1.006 -0.191,-1.82 -0.287,-2.586 -0.24,-1.724 -1.868,-2.395 -4.119,-2.635 l 0,-1.245 11.302,0 0,1.245 c -2.299,0.24 -3.879,0.911 -4.119,2.635 -0.096,0.766 -0.287,1.58 -0.287,2.586 l 0,13.504 c 0,10.295 -6.561,14.126 -12.739,14.126 -10.201,0 -13.361,-5.172 -13.361,-13.839 l 0,-14.27 c 0,-4.454 0.191,-4.214 -4.119,-4.742 l 0,-1.245 12.883,0 0,1.245 c -4.311,0.528 -4.119,0.289 -4.119,4.742 l 0,14.03 z" id="path4165" style="fill:#808080;fill-opacity:1" inkscape:connector-curvature="0"/>
        <path d="m 253.369,93.26 -1.438,5.986 c 0,1.053 -0.861,1.244 -2.202,1.676 -1.819,0.622 -5.172,1.436 -9.338,1.436 -9.817,0 -18.677,-4.691 -18.677,-17.525 0,-7.375 6.273,-17.144 19.155,-17.144 4.646,0 6.849,0.862 9.195,1.629 1.342,0.431 1.867,1.101 1.867,1.867 l 0,6.177 -1.244,0 c -0.144,-3.83 -2.586,-7.997 -10.201,-7.997 -8.956,0 -13.265,6.464 -13.313,15.084 -0.048,9.528 4.31,16.232 14.079,16.232 6.37,0 9.339,-3.639 10.871,-7.422 l 1.246,0 z" id="path4167" style="fill:#808080;fill-opacity:1" inkscape:connector-curvature="0"/>
        <path d="m 264.479,66.683 0,29.114 c 0,4.311 -0.239,4.167 3.832,4.742 l 0,1.244 -11.974,0 0,-1.244 c 4.072,-0.575 3.833,-0.432 3.833,-4.742 l 0,-24.421 c 0,-1.294 -0.577,-2.107 -1.82,-2.107 l -2.013,0 0,-1.245 c 2.873,-0.096 5.939,-0.671 8.046,-1.437 l 0.096,0.096 z" id="path4169" style="fill:#808080;fill-opacity:1" inkscape:connector-curvature="0"/>
        <path d="m 286.223,102.357 c -0.719,-0.861 -1.102,-2.346 -1.102,-3.782 l -3.737,2.49 c -1.1,0.718 -2.44,1.292 -3.926,1.292 -3.161,0 -5.795,-2.777 -5.795,-6.273 0,-4.549 2.683,-5.984 8.286,-8.188 l 5.172,-2.012 c 0,-4.166 -1.102,-6.943 -4.072,-6.943 -2.921,0 -3.927,2.634 -5.075,4.358 -0.144,0.239 -0.336,0.239 -0.622,0.191 l -1.63,-0.383 c -0.286,-0.097 -0.431,-0.288 -0.383,-0.624 l 0.719,-2.537 c 0.288,-0.91 0.814,-1.293 1.39,-1.484 2.202,-0.862 3.83,-1.197 5.937,-1.197 5.604,0 8.047,2.49 8.047,7.71 l 0,10.63 c 0,2.443 0.144,4.502 3.353,3.256 l 0.287,1.342 -6.849,2.154 z m -1.102,-14.652 c -4.216,1.58 -9.147,2.729 -9.147,7.613 0,2.252 1.484,4.07 3.687,4.07 2.491,0 5.461,-1.629 5.461,-7.949 l 0,-3.734 z" id="path4171" style="fill:#808080;fill-opacity:1" inkscape:connector-curvature="0"/>
        <path d="m 315.291,102.357 c -0.719,-0.813 -1.102,-2.298 -1.102,-3.687 l -4.214,2.442 c -2.012,1.148 -3.065,1.244 -4.454,1.244 -5.508,0 -6.992,-3.975 -6.992,-9.338 l 0,-10.485 c 0,-2.203 -1.484,-2.012 -3.832,-2.012 l 0,-1.244 c 2.586,-0.096 5.795,-0.672 8.047,-2.012 l 0.096,0.096 0,15.229 c 0,3.591 0.575,6.943 4.789,6.943 4.454,0 6.561,-2.395 6.561,-9.482 l 0,-7.518 c 0,-2.203 -1.485,-2.012 -3.831,-2.012 l 0,-1.244 c 2.634,-0.096 5.842,-0.672 8.045,-2.012 l 0.096,0.096 0,18.244 c 0,2.443 0.144,4.502 3.352,3.256 l 0.288,1.342 -6.849,2.154 z" id="path4173" style="fill:#808080;fill-opacity:1" inkscape:connector-curvature="0"/>
        <path d="m 325.875,95.701 1.243,0 c -0.046,3.354 2.443,4.98 5.222,4.98 2.777,0 4.405,-2.106 4.405,-4.118 0,-3.112 -2.489,-4.214 -5.363,-6.272 -3.879,-2.826 -5.459,-3.592 -5.459,-6.752 0,-4.023 3.735,-6.273 7.662,-6.273 1.532,0 3.448,0.096 5.65,0.814 l 0,4.787 -1.245,0 c -0.144,-1.627 -1.58,-3.926 -4.311,-3.926 -2.01,0 -3.688,1.197 -3.688,3.064 0,2.299 2.443,3.544 5.939,6.034 4.501,3.16 5.076,4.933 5.076,7.135 0,4.98 -4.502,7.183 -8.668,7.183 -2.634,0 -4.693,-0.43 -6.465,-1.292 l 0,-5.364 z" id="path4175" style="fill:#808080;fill-opacity:1" inkscape:connector-curvature="0"/>
        <path d="m 359.637,80.234 -1.963,0.958 -5.315,0 0,12.594 c 0,1.868 0.096,5.698 3.255,5.698 1.294,0 2.539,-0.096 3.688,-0.574 l 0.335,1.245 -5.556,2.202 c -3.352,0 -6.033,-1.005 -6.033,-7.565 l 0,-13.6 -3.832,0 0,-2.203 3.832,0 0,-5.028 c 0.862,-0.909 1.819,-1.771 3.017,-2.681 l 1.294,0 0,7.709 7.278,0 0,1.245 z" id="path4177" style="fill:#808080;fill-opacity:1" inkscape:connector-curvature="0"/>
        <path d="m 370.173,66.683 0,14.796 c 2.06,-2.393 5.507,-4.213 9.673,-4.213 5.843,0 6.992,3.496 6.992,8.477 l 0,10.055 c 0,4.311 -0.24,4.167 3.832,4.742 l 0,1.244 -11.974,0 0,-1.244 c 4.071,-0.575 3.832,-0.432 3.832,-4.742 l 0,-8.811 c 0,-3.018 -0.192,-7.23 -5.268,-7.23 -6.13,0 -7.088,5.268 -7.088,10.199 l 0,5.842 c 0,4.311 -0.239,4.167 3.831,4.742 l 0,1.244 -11.973,0 0,-1.244 c 4.071,-0.575 3.832,-0.432 3.832,-4.742 l 0,-24.422 c 0,-1.294 -0.575,-2.107 -1.82,-2.107 l -2.012,0 0,-1.245 c 2.874,-0.096 5.94,-0.671 8.047,-1.437 l 0.096,0.096 z" id="path4179" style="fill:#808080;fill-opacity:1" inkscape:connector-curvature="0"/>
        <path d="m 408.58,102.357 c -0.719,-0.861 -1.103,-2.346 -1.103,-3.782 l -3.734,2.49 c -1.103,0.718 -2.442,1.292 -3.927,1.292 -3.161,0 -5.795,-2.777 -5.795,-6.273 0,-4.549 2.683,-5.984 8.285,-8.188 l 5.171,-2.012 c 0,-4.166 -1.102,-6.943 -4.07,-6.943 -2.92,0 -3.926,2.634 -5.076,4.358 -0.143,0.239 -0.335,0.239 -0.622,0.191 l -1.628,-0.383 c -0.287,-0.097 -0.432,-0.288 -0.383,-0.624 l 0.718,-2.537 c 0.288,-0.91 0.813,-1.293 1.389,-1.484 2.203,-0.862 3.831,-1.197 5.938,-1.197 5.603,0 8.046,2.49 8.046,7.71 l 0,10.63 c 0,2.443 0.144,4.502 3.352,3.256 l 0.288,1.342 -6.849,2.154 z m -1.102,-14.652 c -4.214,1.58 -9.146,2.729 -9.146,7.613 0,2.252 1.485,4.07 3.688,4.07 2.49,0 5.459,-1.629 5.459,-7.949 l 0,-3.734 z" id="path4181" style="fill:#808080;fill-opacity:1" inkscape:connector-curvature="0"/>
        <path d="m 426.06,66.683 0,29.114 c 0,4.311 -0.24,4.167 3.831,4.742 l 0,1.244 -11.973,0 0,-1.244 c 4.071,-0.575 3.831,-0.432 3.831,-4.742 l 0,-24.421 c 0,-1.294 -0.574,-2.107 -1.819,-2.107 l -2.012,0 0,-1.245 c 2.873,-0.096 5.938,-0.671 8.045,-1.437 l 0.097,0.096 z" id="path4183" style="fill:#808080;fill-opacity:1" inkscape:connector-curvature="0"/>
      </g>
    </g>
  </g>
</svg>