<?xml version="1.0" encoding="UTF-8" standalone="no"?>
<!-- Created with Inkscape (http://www.inkscape.org/) -->
<svg xmlns:inkscape="http://www.inkscape.org/namespaces/inkscape" xmlns:sodipodi="http://sodipodi.sourceforge.net/DTD/sodipodi-0.dtd" xmlns="http://www.w3.org/2000/svg" xmlns:svg="http://www.w3.org/2000/svg" version="1.1" id="svg2" width="510.14667" height="123.10667" viewBox="0 0 510.14667 123.10667" sodipodi:docname="LogoSWZ_englisch.eps">
  <defs id="defs6"></defs>
  <g id="g8" inkscape:groupmode="layer" inkscape:label="ink_ext_XXXXXX" transform="matrix(1.3333333,0,0,-1.3333333,0,123.10667)">
    <g id="g10" transform="scale(0.1)">
      <path d="m 148.328,526.527 c 3.102,-26 9.801,-44.464 20.102,-55.429 18.23,-19.5 51.922,-29.246 101.09,-29.246 28.859,0 51.82,4.265 68.839,12.828 17.032,8.547 25.532,21.379 25.532,38.488 0,16.434 -6.86,28.922 -20.563,37.473 -13.711,8.55 -64.73,23.265 -153.031,44.14 -63.578,15.739 -108.3673,35.41 -134.3556,59.02 -26,23.269 -39.0039,56.801 -39.0039,100.597 0,51.661 20.3125,96.043 60.9531,133.172 40.6214,37.118 97.8084,55.688 171.5194,55.688 69.942,0 126.961,-13.949 171.02,-41.84 44.074,-27.887 69.359,-76.027 75.871,-144.461 H 350.027 c -2.066,18.82 -7.367,33.711 -15.957,44.648 -16.121,19.856 -43.574,29.774 -82.351,29.774 -31.899,0 -54.617,-4.965 -68.168,-14.879 -13.563,-9.934 -20.344,-21.562 -20.344,-34.914 0,-16.758 7.203,-28.906 21.621,-36.438 14.391,-7.859 65.305,-21.378 152.731,-40.539 58.269,-13.691 101.945,-34.379 131.031,-62.097 28.738,-28.063 43.109,-63.133 43.109,-105.211 0,-55.43 -20.648,-100.703 -61.976,-135.774 C 408.406,346.461 344.57,328.941 258.18,328.941 170.051,328.941 105,347.48 63.0078,384.609 20.9922,421.73 0,469.047 0,526.527 h 148.328" style="fill:#f68712;fill-opacity:1;fill-rule:nonzero;stroke:none" id="path12"></path>
      <path d="m 883.285,907.348 h 148.335 l 85.19,-402.891 87.25,402.891 h 152.42 L 1194.31,347.93 H 1043.93 L 956.168,755.441 867.379,347.93 H 715.453 L 558.406,907.348 h 157.047 l 87.25,-401.352 80.582,401.352" style="fill:#4e4b41;fill-opacity:1;fill-rule:nonzero;stroke:none" id="path14"></path>
      <path d="m 1405.24,788.285 v 119.059 h 442.41 V 785.719 L 1573.16,468.027 h 284.23 V 347.926 h -471.65 v 113.937 l 277.3,326.422 h -257.8" style="fill:#4e4b41;fill-opacity:1;fill-rule:nonzero;stroke:none" id="path16"></path>
      <path d="m 1949.48,909.098 h 333.33 v -333.34 h -333.33 v 333.34" style="fill:#f68712;fill-opacity:1;fill-rule:nonzero;stroke:none" id="path18"></path>
      <path d="m 2428.71,509.32 v -19.922 c -5.68,2.774 -10.44,4.153 -14.28,4.153 -5.25,0 -9.76,-1.301 -13.52,-3.887 -3.77,-2.594 -6.88,-6.594 -9.33,-11.992 -2.45,-5.402 -4.26,-12.231 -5.44,-20.5 -1.17,-8.281 -1.76,-18.063 -1.76,-29.359 0,-40.629 10.41,-60.954 31.23,-60.954 3.62,0 7.99,1.145 13.1,3.414 v -20.351 c -5.32,-2.977 -11.29,-4.481 -17.9,-4.481 -33.31,0 -49.97,27.211 -49.97,81.622 0,29.406 4.06,51.289 12.2,65.636 8.13,14.34 20.58,21.524 37.35,21.524 6.18,0 12.29,-1.629 18.32,-4.903" style="fill:#4e4b41;fill-opacity:1;fill-rule:nonzero;stroke:none" id="path20"></path>
      <path d="m 2446.18,528.496 h 20.34 V 347.465 h -20.34 v 181.031" style="fill:#4e4b41;fill-opacity:1;fill-rule:nonzero;stroke:none" id="path22"></path>
      <path d="m 2506.6,403.09 c 0,-14.492 0.96,-24.61 2.88,-30.371 1.98,-5.746 5.47,-8.625 10.44,-8.625 4.54,0 7.85,2.976 9.91,8.949 2.06,6.395 3.09,16.23 3.09,29.516 0,13.347 -1.03,23.23 -3.09,29.625 -2.06,5.957 -5.37,8.949 -9.91,8.949 -4.83,0 -8.27,-2.844 -10.33,-8.52 -1.99,-5.265 -2.99,-15.101 -2.99,-29.523 m 46.04,54.66 V 347.473 h -20.35 v 14.168 c -2.92,-6.039 -5.83,-10.192 -8.75,-12.469 -2.91,-2.274 -6.74,-3.399 -11.5,-3.399 -9.17,0 -15.88,4.676 -20.14,14.055 -4.26,9.383 -6.39,24.082 -6.39,44.113 0,19.11 2.13,33.161 6.39,42.137 4.26,8.992 10.97,13.485 20.14,13.485 8.38,0 15.13,-4.762 20.25,-14.286 v 12.473 h 20.35" style="fill:#4e4b41;fill-opacity:1;fill-rule:nonzero;stroke:none" id="path24"></path>
      <path d="m 2575.75,457.754 h 20.35 v -73.738 c 0.15,-6.825 1.16,-11.68 3.04,-14.59 1.89,-2.922 5.03,-4.371 9.43,-4.371 4.62,0 7.86,1.269 9.7,3.828 1.85,2.699 2.77,7.39 2.77,14.07 v 8.84 65.961 h 20.35 v -65.961 c 0,-15.41 -1.14,-25.707 -3.41,-30.898 -4.76,-10.079 -14.63,-15.133 -29.62,-15.133 -11.79,0 -20.18,2.992 -25.15,8.949 -4.97,6.043 -7.46,16.094 -7.46,30.152 v 72.891" style="fill:#4e4b41;fill-opacity:1;fill-rule:nonzero;stroke:none" id="path26"></path>
      <path d="m 2707.03,455.484 v -19.152 c -4.98,3.703 -10.19,5.543 -15.66,5.543 -1.85,0 -3.56,-0.32 -5.12,-0.961 -1.56,-0.641 -2.93,-1.5 -4.1,-2.598 -1.17,-1.113 -2.1,-2.414 -2.77,-3.941 -0.68,-1.531 -1.01,-3.141 -1.01,-4.852 0,-5.25 4.76,-11.492 14.28,-18.734 3.83,-2.976 7.03,-5.734 9.6,-8.293 2.54,-2.555 4.5,-4.961 5.85,-7.23 2.77,-4.485 4.15,-10.125 4.15,-16.93 0,-9.863 -2.87,-17.773 -8.63,-23.731 -5.68,-5.89 -13.32,-8.843 -22.91,-8.843 -5.9,0 -11.86,1.754 -17.9,5.254 v 19.789 c 5.89,-4.403 11.47,-6.602 16.73,-6.602 9.31,0 13.96,4.57 13.96,13.731 0,3.398 -0.85,6.339 -2.56,8.828 -0.78,1.211 -2.03,2.613 -3.73,4.199 -1.7,1.602 -3.8,3.394 -6.28,5.383 -8.61,6.668 -14.43,12.269 -17.48,16.82 -2.98,4.68 -4.48,10.316 -4.48,16.918 0,8.871 2.74,16.145 8.21,21.82 5.53,5.602 12.75,8.403 21.63,8.403 6.25,0 12.32,-1.606 18.22,-4.821" style="fill:#4e4b41;fill-opacity:1;fill-rule:nonzero;stroke:none" id="path28"></path>
      <path d="m 2732.06,488.652 h 20.35 v -30.898 h 11.09 v -16.191 h -11.09 v -94.09 h -20.35 v 94.09 h -11.18 v 16.191 h 11.18 v 30.898" style="fill:#4e4b41;fill-opacity:1;fill-rule:nonzero;stroke:none" id="path30"></path>
      <path d="m 2778.09,528.5 h 20.35 v -83.43 c 5.83,9.66 13.36,14.493 22.59,14.493 8.95,0 15.35,-3.524 19.18,-10.555 2.13,-3.981 3.2,-11.68 3.2,-23.117 v -78.418 h -20.35 l -0.11,73.738 c 0,7.449 -0.89,12.738 -2.67,15.867 -1.77,3.121 -4.83,4.695 -9.16,4.695 -2.34,0 -4.31,-0.41 -5.91,-1.23 -1.6,-0.813 -2.9,-2.137 -3.89,-3.941 -1,-1.813 -1.73,-4.168 -2.2,-7.079 -0.45,-2.921 -0.68,-6.5 -0.68,-10.773 v -71.277 h -20.35 V 528.5" style="fill:#4e4b41;fill-opacity:1;fill-rule:nonzero;stroke:none" id="path32"></path>
      <path d="m 2883.36,403.09 c 0,-14.492 0.96,-24.61 2.88,-30.371 1.98,-5.746 5.47,-8.625 10.44,-8.625 4.54,0 7.85,2.976 9.91,8.949 2.06,6.395 3.09,16.23 3.09,29.516 0,13.347 -1.03,23.23 -3.09,29.625 -2.06,5.957 -5.37,8.949 -9.91,8.949 -4.83,0 -8.27,-2.844 -10.33,-8.52 -1.99,-5.265 -2.99,-15.101 -2.99,-29.523 m 46.03,54.66 V 347.473 h -20.35 v 14.168 c -2.92,-6.039 -5.83,-10.192 -8.74,-12.469 -2.91,-2.274 -6.75,-3.399 -11.5,-3.399 -9.17,0 -15.88,4.676 -20.14,14.055 -4.27,9.383 -6.39,24.082 -6.39,44.113 0,19.11 2.12,33.161 6.39,42.137 4.26,8.992 10.97,13.485 20.14,13.485 8.38,0 15.13,-4.762 20.24,-14.286 v 12.473 h 20.35" style="fill:#4e4b41;fill-opacity:1;fill-rule:nonzero;stroke:none" id="path34"></path>
      <path d="m 2952.51,528.496 h 20.35 V 347.465 h -20.35 v 181.031" style="fill:#4e4b41;fill-opacity:1;fill-rule:nonzero;stroke:none" id="path36"></path>
      <path d="m 3043.61,412.035 h 65.63 v -16.199 h -65.63 v 16.199" style="fill:#4e4b41;fill-opacity:1;fill-rule:nonzero;stroke:none" id="path38"></path>
      <path d="m 3220.49,433.988 h 40.28 v -6.39 c 0,-32.035 -2.81,-53.668 -8.42,-64.887 -5.54,-11.512 -15.91,-17.262 -31.11,-17.262 -15.7,0 -26.88,6.391 -33.56,19.168 -6.62,12.789 -9.92,34.285 -9.92,64.477 0,34.515 3.63,57.5 10.87,68.933 6.82,10.735 17.3,16.094 31.44,16.094 10.79,0 19.21,-2.601 25.25,-7.781 6.11,-5.262 10.87,-13.891 14.28,-25.891 l -20.67,-8.629 c -0.93,4.328 -1.96,7.969 -3.09,10.918 -1.14,2.942 -2.38,5.231 -3.73,6.871 -2.71,3.34 -6.75,5.008 -12.15,5.008 -7.39,0 -12.43,-4.547 -15.13,-13.637 -2.7,-9.519 -4.05,-26.601 -4.05,-51.25 0,-24.929 1.39,-41.8 4.15,-50.609 2.78,-8.812 8,-13.223 15.67,-13.223 7.03,0 11.97,3.129 14.81,9.379 2.91,6.68 4.37,17.414 4.37,32.184 v 4.469 3.308 h -19.29 v 18.75" style="fill:#4e4b41;fill-opacity:1;fill-rule:nonzero;stroke:none" id="path40"></path>
      <path d="m 3331.2,499.73 c 3.26,0 6.1,-1.21 8.53,-3.617 2.41,-2.422 3.62,-5.332 3.62,-8.742 0,-3.41 -1.21,-6.32 -3.62,-8.726 -2.43,-2.422 -5.34,-3.633 -8.74,-3.633 -1.7,0 -3.33,0.32 -4.85,0.961 -1.53,0.636 -2.84,1.527 -3.94,2.672 -1.11,1.125 -1.98,2.46 -2.61,3.988 -0.64,1.527 -0.97,3.14 -0.97,4.847 0,3.415 1.21,6.282 3.62,8.633 2.43,2.407 5.41,3.617 8.96,3.617 m -5.54,-97.5 c 0,14.504 -0.96,24.583 -2.88,30.27 -1.91,5.754 -5.33,8.633 -10.22,8.633 -4.84,0 -8.28,-2.852 -10.34,-8.52 -1.92,-5.687 -2.88,-15.601 -2.88,-29.742 0,-14.133 0.96,-24 2.88,-29.609 2.06,-5.688 5.5,-8.532 10.34,-8.532 4.82,0 8.2,2.809 10.12,8.418 1.99,5.254 2.98,14.954 2.98,29.082 m -31.86,97.5 c 3.34,0 6.22,-1.21 8.63,-3.617 2.41,-2.422 3.62,-5.332 3.62,-8.742 0,-3.41 -1.21,-6.32 -3.62,-8.726 -2.41,-2.422 -5.36,-3.633 -8.85,-3.633 -3.4,0 -6.31,1.211 -8.73,3.633 -2.42,2.406 -3.62,5.355 -3.62,8.835 0,3.415 1.2,6.282 3.62,8.633 2.42,2.407 5.39,3.617 8.95,3.617 m 52.96,-98.031 c 0,-37.289 -11.55,-55.926 -34.63,-55.926 -23.09,0 -34.63,18.93 -34.63,56.79 0,38 11.5,57 34.52,57 5.97,0 11.13,-1.129 15.51,-3.411 4.36,-2.269 7.97,-5.793 10.81,-10.55 2.84,-4.762 4.95,-10.758 6.34,-18 1.38,-7.25 2.08,-15.883 2.08,-25.903" style="fill:#4e4b41;fill-opacity:1;fill-rule:nonzero;stroke:none" id="path42"></path>
      <path d="m 3367.96,488.652 h 20.35 v -30.898 h 11.08 v -16.191 h -11.08 v -94.09 h -20.35 v 94.09 h -11.18 v 16.191 h 11.18 v 30.898" style="fill:#4e4b41;fill-opacity:1;fill-rule:nonzero;stroke:none" id="path44"></path>
      <path d="m 3416.44,488.652 h 20.35 v -30.898 h 11.08 v -16.191 h -11.08 v -94.09 h -20.35 v 94.09 h -11.19 v 16.191 h 11.19 v 30.898" style="fill:#4e4b41;fill-opacity:1;fill-rule:nonzero;stroke:none" id="path46"></path>
      <path d="m 3462.46,457.758 h 20.46 V 347.477 h -20.46 z m 9.59,46.883 c 3.69,0 6.9,-1.356 9.59,-4.055 2.71,-2.699 4.06,-5.93 4.06,-9.695 0,-3.836 -1.35,-7.102 -4.06,-9.809 -2.69,-2.691 -5.97,-4.047 -9.79,-4.047 -3.84,0 -7.11,1.356 -9.81,4.047 -2.63,2.633 -3.94,5.934 -3.94,9.914 0,3.692 1.35,6.891 4.05,9.59 2.91,2.699 6.21,4.055 9.9,4.055" style="fill:#4e4b41;fill-opacity:1;fill-rule:nonzero;stroke:none" id="path48"></path>
      <path d="m 3505.83,457.754 h 20.35 v -12.68 c 5.83,9.656 13.36,14.492 22.59,14.492 8.94,0 15.35,-3.519 19.18,-10.55 2.14,-3.981 3.2,-11.684 3.2,-23.121 v -78.418 h -20.35 l -0.11,73.722 c 0,7.461 -0.89,12.754 -2.66,15.887 -1.78,3.117 -4.84,4.676 -9.16,4.676 -2.35,0 -4.32,-0.41 -5.92,-1.219 -1.59,-0.82 -2.89,-2.129 -3.89,-3.941 -0.99,-1.805 -1.73,-4.18 -2.19,-7.09 -0.45,-2.91 -0.69,-6.5 -0.69,-10.758 v -71.277 h -20.35 v 110.277" style="fill:#4e4b41;fill-opacity:1;fill-rule:nonzero;stroke:none" id="path50"></path>
      <path d="m 3637.21,401.598 c 0,26.359 -4.54,39.531 -13.64,39.531 -4.33,0 -7.5,-2.965 -9.49,-8.902 -1.98,-5.926 -2.98,-15.43 -2.98,-28.5 0,-13.848 1.04,-24.039 3.1,-30.582 2.13,-6.04 5.67,-9.047 10.65,-9.047 4.69,0 7.92,2.699 9.7,8.097 1.77,5.032 2.66,14.84 2.66,29.403 m -0.32,56.16 h 20.46 V 343.953 c 0,-13.637 -1.35,-23.09 -4.05,-28.348 -4.97,-9.648 -14.95,-14.476 -29.94,-14.476 -9.87,0 -17.62,2.797 -23.23,8.406 -5.69,5.692 -8.53,13.32 -8.53,22.91 l 0.11,3.41 h 19.72 c 0,-11.718 4.36,-17.578 13.1,-17.578 4.76,0 7.99,1.489 9.7,4.465 1.78,2.844 2.66,8.492 2.66,16.953 v 21.203 c -4.33,-10.093 -10.97,-15.132 -19.93,-15.132 -9.23,0 -16.03,4.468 -20.4,13.418 -4.36,8.953 -6.55,22.957 -6.55,41.992 0,20.172 2.09,35.051 6.29,44.64 4.11,9.161 10.97,13.739 20.56,13.739 4.55,0 8.24,-1.086 11.08,-3.301 2.84,-2.195 5.82,-6.106 8.95,-11.719 v 13.223" style="fill:#4e4b41;fill-opacity:1;fill-rule:nonzero;stroke:none" id="path52"></path>
      <path d="m 3721.92,413.32 c -0.86,11.582 -2.16,19.18 -3.94,22.801 -1.85,4.051 -4.84,6.082 -8.96,6.082 -4.19,0 -7.16,-2.031 -8.94,-6.082 -1.78,-3.621 -3.1,-11.219 -3.95,-22.801 z m 1.07,-28.664 h 18.96 c -1.48,-25.926 -12.15,-38.883 -31.96,-38.883 -5.9,0 -10.97,1.098 -15.19,3.297 -4.22,2.2 -7.72,5.614 -10.49,10.231 -2.78,4.621 -4.82,10.48 -6.13,17.578 -1.31,7.101 -1.97,15.562 -1.97,25.363 0,19.457 2.72,33.879 8.16,43.254 5.42,9.375 13.82,14.067 25.19,14.067 22.09,0 33.14,-19.461 33.14,-58.391 v -2.563 h -46.57 c 0,-23.582 4.69,-35.367 14.07,-35.367 8.52,0 12.79,7.141 12.79,21.414" style="fill:#4e4b41;fill-opacity:1;fill-rule:nonzero;stroke:none" id="path54"></path>
      <path d="m 3760.81,457.754 h 20.35 v -12.68 c 5.83,9.656 13.36,14.492 22.59,14.492 8.95,0 15.35,-3.519 19.18,-10.55 2.14,-3.981 3.2,-11.684 3.2,-23.121 v -78.418 h -20.35 l -0.11,73.722 c 0,7.461 -0.88,12.754 -2.66,15.887 -1.78,3.117 -4.84,4.676 -9.16,4.676 -2.35,0 -4.32,-0.41 -5.92,-1.219 -1.59,-0.82 -2.89,-2.129 -3.89,-3.941 -0.99,-1.805 -1.73,-4.18 -2.19,-7.09 -0.45,-2.91 -0.69,-6.5 -0.69,-10.758 v -71.277 h -20.35 v 110.277" style="fill:#4e4b41;fill-opacity:1;fill-rule:nonzero;stroke:none" id="path56"></path>
      <path d="m 13.0039,44.5625 c 6.8672,-4.6406 13.2149,-8.0469 19.0117,-10.2461 5.8086,-2.207 11.2617,-3.3203 16.375,-3.3203 8.8399,0 15.8672,2.8242 21.0782,8.4766 5.2148,5.6445 7.8164,13.1992 7.8164,22.6796 0,13.879 -9.9766,29.7657 -29.9219,47.6177 -2.375,2.148 -4.1367,3.769 -5.3164,4.835 -12.7774,11.512 -21.7188,22.196 -26.836,32.032 -5.1132,9.863 -7.66793,20.926 -7.66793,33.191 0,17.75 5.15623,32.543 15.48433,44.391 10.3165,11.847 23.1016,17.765 38.3282,17.765 6.6875,0 13.1328,-0.871 19.3242,-2.589 6.1914,-1.739 12.3281,-4.415 18.4258,-8.075 v -31.632 c -5.5977,4.296 -11.0782,7.5 -16.4414,9.609 -5.3555,2.082 -10.6485,3.125 -15.8477,3.125 -9.1445,0 -16.4648,-2.93 -21.9726,-8.789 -5.5,-5.867 -8.2461,-13.672 -8.2461,-23.481 0,-13.566 10.5546,-29.601 31.6914,-48.105 1.9687,-1.731 3.4882,-3.027 4.5703,-3.879 12.289,-10.867 20.9883,-21.309 26.0976,-31.3086 5.109,-10 7.676,-21.4727 7.676,-34.3828 0,-18.0899 -5.27,-32.9649 -15.7892,-44.6328 C 80.332,6.16016 66.8633,0.332031 50.4453,0.332031 44.457,0.332031 38.3477,1.28906 32.1719,3.23438 25.9727,5.17578 19.582,8.125 13.0039,12.1016 v 32.4609" style="fill:#4e4b41;fill-opacity:1;fill-rule:nonzero;stroke:none" id="path58"></path>
      <path d="m 137.105,161.578 h 26.543 V 3.23438 h -26.543 z m -3.675,47.301 c 0,5.273 1.609,9.734 4.859,13.398 3.242,3.668 7.274,5.489 12.086,5.489 4.723,0 8.707,-1.821 11.949,-5.489 3.246,-3.664 4.867,-8.125 4.867,-13.398 0,-5.156 -1.648,-9.555 -4.945,-13.145 -3.285,-3.605 -7.25,-5.421 -11.871,-5.421 -4.812,0 -8.844,1.796 -12.086,5.332 -3.25,3.554 -4.859,7.96 -4.859,13.234" style="fill:#4e4b41;fill-opacity:1;fill-rule:nonzero;stroke:none" id="path60"></path>
      <path d="M 202.102,3.23438 V 161.578 h 26.234 v -15.812 c 3.348,5.812 7.477,10.175 12.394,13.086 4.915,2.89 10.657,4.347 17.25,4.347 6.489,0 12.071,-1.535 16.731,-4.609 4.664,-3.067 8.82,-7.93 12.461,-14.61 3.926,6.465 8.551,11.278 13.851,14.461 5.309,3.157 11.364,4.758 18.153,4.758 10.605,0 18.496,-3.222 23.656,-9.679 5.164,-6.465 7.742,-16.309 7.742,-29.532 V 3.23438 H 324.031 V 109.594 c 0,10.773 -1.277,18.105 -3.832,21.965 -2.558,3.867 -7.039,5.82 -13.418,5.82 -5.801,0 -10.222,-2.024 -13.269,-6.047 -3.051,-4.051 -4.567,-10.059 -4.567,-18.027 V 3.23438 H 262.699 V 109.594 c 0,10.558 -1.273,17.832 -3.836,21.808 -2.558,3.985 -6.886,5.977 -12.972,5.977 -5.711,0 -9.996,-2.024 -12.907,-6.047 -2.89,-4.051 -4.351,-10.059 -4.351,-18.027 V 3.23438 h -26.531" style="fill:#4e4b41;fill-opacity:1;fill-rule:nonzero;stroke:none" id="path62"></path>
      <path d="M 387.555,49.8789 V 161.578 h 26.527 V 48.2656 c 0,-7.3086 1.484,-12.8554 4.43,-16.625 2.949,-3.7695 7.324,-5.664 13.125,-5.664 5.699,0 10.011,1.8945 12.972,5.664 2.946,3.7696 4.422,9.3164 4.422,16.625 V 161.578 h 26.981 V 49.8789 c 0,-17.4375 -3.512,-30.0547 -10.543,-37.8476 -7.031,-7.80083 -18.301,-11.710987 -33.832,-11.710987 -15.532,0 -26.758,3.910157 -33.699,11.710987 -6.922,7.7929 -10.383,20.4101 -10.383,37.8476" style="fill:#4e4b41;fill-opacity:1;fill-rule:nonzero;stroke:none" id="path64"></path>
      <path d="m 513.73,253.43 h 26.54 V 3.23438 H 513.73 V 253.43" style="fill:#4e4b41;fill-opacity:1;fill-rule:nonzero;stroke:none" id="path66"></path>
      <path d="m 599.508,82.6523 c 0,-20.2265 1.551,-34.4843 4.64,-42.7695 3.11,-8.289 8.18,-12.4336 15.27,-12.4336 7.074,0 12.16,4.1602 15.254,12.5117 3.098,8.3243 4.641,22.5625 4.641,42.6914 0,20.2347 -1.532,34.4027 -4.563,42.5467 -3.047,8.098 -8.164,12.18 -15.332,12.18 -7.176,0 -12.289,-4.082 -15.352,-12.18 -3.043,-8.144 -4.558,-22.312 -4.558,-42.5467 M 638.43,3.23438 V 18.7305 C 634.789,12.3711 630.637,7.71484 625.98,4.76563 621.301,1.80859 615.922,0.320313 609.836,0.320313 c -12.203,0 -21.441,6.945317 -27.731,20.831987 -6.289,13.8868 -9.437,34.379 -9.437,61.5 0,26.9027 3.125,47.2657 9.367,61.1017 6.246,13.82 15.504,20.723 27.801,20.723 6.187,0 11.613,-1.446 16.281,-4.356 4.664,-2.91 8.785,-7.469 12.313,-13.711 v 15.168 h 26.547 V 3.23438 H 638.43" style="fill:#4e4b41;fill-opacity:1;fill-rule:nonzero;stroke:none" id="path68"></path>
      <path d="M 703.121,3.23438 V 140.121 h -14.449 v 21.457 h 14.449 v 42.945 h 26.535 v -42.945 h 19.907 V 140.121 H 729.656 V 3.23438 h -26.535" style="fill:#4e4b41;fill-opacity:1;fill-rule:nonzero;stroke:none" id="path70"></path>
      <path d="m 772.973,161.578 h 26.543 V 3.23438 h -26.543 z m -3.676,47.301 c 0,5.273 1.609,9.734 4.863,13.398 3.242,3.668 7.262,5.489 12.078,5.489 4.731,0 8.703,-1.821 11.946,-5.489 3.246,-3.664 4.875,-8.125 4.875,-13.398 0,-5.156 -1.653,-9.555 -4.938,-13.145 -3.301,-3.605 -7.262,-5.421 -11.883,-5.421 -4.816,0 -8.836,1.796 -12.078,5.332 -3.254,3.554 -4.863,7.96 -4.863,13.234" style="fill:#4e4b41;fill-opacity:1;fill-rule:nonzero;stroke:none" id="path72"></path>
      <path d="m 857.285,82.9844 c 0,-19.3867 1.738,-33.5547 5.231,-42.5547 3.484,-8.9766 8.968,-13.4649 16.433,-13.4649 7.574,0 13.145,4.5118 16.739,13.5625 3.593,9.0274 5.382,23.1797 5.382,42.4571 0,19.1406 -1.789,33.2306 -5.382,42.2736 -3.594,9.043 -9.165,13.566 -16.739,13.566 -7.465,0 -12.949,-4.492 -16.433,-13.476 -3.493,-8.985 -5.231,-23.118 -5.231,-42.3636 m -26.988,-0.3321 c 0,26.6877 4.156,46.9997 12.457,60.9257 8.309,13.938 20.375,20.899 36.195,20.899 15.824,0 27.891,-6.961 36.207,-20.899 8.301,-13.926 12.446,-34.238 12.446,-60.9257 0,-26.914 -4.145,-47.3476 -12.446,-61.3437 C 906.84,7.32422 894.773,0.332031 878.949,0.332031 c -15.82,0 -27.886,6.992189 -36.195,20.976569 -8.301,13.9961 -12.457,34.4297 -12.457,61.3437" style="fill:#4e4b41;fill-opacity:1;fill-rule:nonzero;stroke:none" id="path74"></path>
      <path d="M 958.383,3.23438 V 161.578 h 26.25 v -15.812 c 3.535,5.812 7.844,10.175 12.902,13.086 5.065,2.89 10.935,4.347 17.625,4.347 10.62,0 18.5,-3.222 23.65,-9.679 5.17,-6.465 7.75,-16.309 7.75,-29.532 V 3.23438 h -26.69 V 109.594 c 0,10.773 -1.27,18.105 -3.83,21.965 -2.55,3.867 -6.98,5.82 -13.27,5.82 -5.891,0 -10.348,-2.024 -13.34,-6.047 -3,-4.051 -4.504,-10.059 -4.504,-18.027 V 3.23438 h -26.543" style="fill:#4e4b41;fill-opacity:1;fill-rule:nonzero;stroke:none" id="path76"></path>
      <path d="m 1143.96,44.5625 c 6.88,-4.6406 13.22,-8.0469 19.01,-10.2461 5.81,-2.207 11.27,-3.3203 16.38,-3.3203 8.84,0 15.86,2.8242 21.09,8.4766 5.2,5.6445 7.81,13.1992 7.81,22.6796 0,13.879 -9.98,29.7657 -29.93,47.6177 -2.37,2.148 -4.14,3.769 -5.31,4.835 -12.78,11.512 -21.73,22.196 -26.84,32.032 -5.11,9.863 -7.67,20.926 -7.67,33.191 0,17.75 5.16,32.543 15.48,44.391 10.32,11.847 23.1,17.765 38.34,17.765 6.69,0 13.12,-0.871 19.32,-2.589 6.18,-1.739 12.32,-4.415 18.42,-8.075 v -31.632 c -5.6,4.296 -11.08,7.5 -16.44,9.609 -5.35,2.082 -10.64,3.125 -15.85,3.125 -9.14,0 -16.46,-2.93 -21.96,-8.789 -5.5,-5.867 -8.25,-13.672 -8.25,-23.481 0,-13.566 10.56,-29.601 31.69,-48.105 1.96,-1.731 3.49,-3.027 4.57,-3.879 12.29,-10.867 20.99,-21.309 26.09,-31.3086 5.11,-10 7.67,-21.4727 7.67,-34.3828 0,-18.0899 -5.26,-32.9649 -15.77,-44.6328 -10.52,-11.68364 -23.99,-17.511769 -40.4,-17.511769 -5.99,0 -12.08,0.957029 -18.28,2.902349 -6.2,1.9414 -12.59,4.89062 -19.17,8.86722 v 32.4609" style="fill:#4e4b41;fill-opacity:1;fill-rule:nonzero;stroke:none" id="path78"></path>
      <path d="M 1324.24,5.82813 C 1320.5,3.88672 1316.87,2.43359 1313.33,1.46484 1309.79,0.488281 1306.16,0 1302.43,0 c -14.55,0 -25.29,6.64063 -32.22,19.9414 -6.93,13.2813 -10.4,34.0391 -10.4,62.2227 0,27.0119 3.5,47.4879 10.47,61.4139 6.98,13.938 17.2,20.899 30.66,20.899 4.14,0 8.12,-0.508 11.96,-1.524 3.83,-1.023 7.6,-2.566 11.34,-4.598 v -27.921 c -2.45,2.589 -4.86,4.453 -7.22,5.644 -2.36,1.172 -4.81,1.777 -7.37,1.777 -7.67,0 -13.39,-4.734 -17.18,-14.199 -3.77,-9.472 -5.68,-23.7302 -5.68,-42.781 0,-17.5312 1.84,-30.6172 5.53,-39.2344 3.7,-8.6133 9.27,-12.9101 16.74,-12.9101 2.65,0 5.22,0.5547 7.73,1.6914 2.52,1.1406 5,2.8906 7.45,5.2422 V 5.82813" style="fill:#4e4b41;fill-opacity:1;fill-rule:nonzero;stroke:none" id="path80"></path>
      <path d="m 1349.87,161.578 h 26.53 V 3.23438 h -26.53 z m -3.69,47.301 c 0,5.273 1.62,9.734 4.86,13.398 3.25,3.668 7.28,5.489 12.09,5.489 4.73,0 8.72,-1.821 11.94,-5.489 3.25,-3.664 4.87,-8.125 4.87,-13.398 0,-5.156 -1.64,-9.555 -4.94,-13.145 -3.29,-3.605 -7.25,-5.421 -11.87,-5.421 -4.81,0 -8.84,1.796 -12.09,5.332 -3.24,3.554 -4.86,7.96 -4.86,13.234" style="fill:#4e4b41;fill-opacity:1;fill-rule:nonzero;stroke:none" id="path82"></path>
      <path d="m 1432.25,99.75 h 40.54 v 4.043 c 0,13.02 -1.57,22.434 -4.71,28.242 -3.15,5.82 -8.22,8.723 -15.19,8.723 -6.77,0 -11.92,-3.469 -15.4,-10.403 -3.49,-6.953 -5.24,-17.136 -5.24,-30.605 m 64.73,-43.5625 v -2.1016 c 0,-16.7031 -3.84,-29.8281 -11.51,-39.3906 -7.66,-9.58592 -18.13,-14.363269 -31.4,-14.363269 -16.21,0 -28.09,6.582029 -35.61,19.777369 -7.51,13.1719 -11.28,34.2304 -11.28,63.1758 0,27.2378 3.77,47.5698 11.28,61.0278 7.52,13.457 18.92,20.164 34.14,20.164 16.21,0 27.91,-6.094 35.09,-18.309 7.18,-12.207 10.75,-32.219 10.75,-59.961 v -9.2109 h -66.19 v -4.668 c 0,-16.5898 1.72,-28.6054 5.16,-36.0781 3.44,-7.4805 8.89,-11.2305 16.36,-11.2305 6,0 10.55,2.5899 13.65,7.7344 3.09,5.1875 4.79,12.9414 5.1,23.2578 l 24.46,0.1758" style="fill:#4e4b41;fill-opacity:1;fill-rule:nonzero;stroke:none" id="path84"></path>
      <path d="M 1528.94,3.23438 V 161.578 h 26.24 v -15.812 c 3.54,5.812 7.83,10.175 12.91,13.086 5.06,2.89 10.92,4.347 17.62,4.347 10.61,0 18.48,-3.222 23.66,-9.679 5.15,-6.465 7.73,-16.309 7.73,-29.532 V 3.23438 h -26.68 V 109.594 c 0,10.773 -1.29,18.105 -3.83,21.965 -2.56,3.867 -6.98,5.82 -13.27,5.82 -5.89,0 -10.35,-2.024 -13.35,-6.047 -3,-4.051 -4.5,-10.059 -4.5,-18.027 V 3.23438 h -26.53" style="fill:#4e4b41;fill-opacity:1;fill-rule:nonzero;stroke:none" id="path86"></path>
      <path d="M 1710.69,5.82813 C 1706.95,3.88672 1703.32,2.43359 1699.78,1.46484 1696.26,0.488281 1692.62,0 1688.87,0 c -14.55,0 -25.27,6.64063 -32.21,19.9414 -6.93,13.2813 -10.4,34.0391 -10.4,62.2227 0,27.0119 3.49,47.4879 10.47,61.4139 6.98,13.938 17.2,20.899 30.68,20.899 4.12,0 8.11,-0.508 11.94,-1.524 3.83,-1.023 7.6,-2.566 11.34,-4.598 v -27.921 c -2.46,2.589 -4.86,4.453 -7.22,5.644 -2.36,1.172 -4.81,1.777 -7.37,1.777 -7.67,0 -13.39,-4.734 -17.18,-14.199 -3.78,-9.472 -5.68,-23.7302 -5.68,-42.781 0,-17.5312 1.84,-30.6172 5.53,-39.2344 3.68,-8.6133 9.27,-12.9101 16.75,-12.9101 2.64,0 5.21,0.5547 7.73,1.6914 2.51,1.1406 4.98,2.8906 7.44,5.2422 V 5.82813" style="fill:#4e4b41;fill-opacity:1;fill-rule:nonzero;stroke:none" id="path88"></path>
      <path d="m 1753.42,99.75 h 40.53 v 4.043 c 0,13.02 -1.56,22.434 -4.7,28.242 -3.16,5.82 -8.21,8.723 -15.19,8.723 -6.79,0 -11.94,-3.469 -15.41,-10.403 -3.5,-6.953 -5.23,-17.136 -5.23,-30.605 m 64.71,-43.5625 v -2.1016 c 0,-16.7031 -3.82,-29.8281 -11.49,-39.3906 -7.66,-9.58592 -18.12,-14.363269 -31.41,-14.363269 -16.22,0 -28.08,6.582029 -35.61,19.777369 -7.52,13.1719 -11.27,34.2304 -11.27,63.1758 0,27.2378 3.75,47.5698 11.27,61.0278 7.53,13.457 18.9,20.164 34.14,20.164 16.23,0 27.92,-6.094 35.09,-18.309 7.18,-12.207 10.75,-32.219 10.75,-59.961 v -9.2109 h -66.18 v -4.668 c 0,-16.5898 1.71,-28.6054 5.15,-36.0781 3.46,-7.4805 8.9,-11.2305 16.37,-11.2305 5.99,0 10.54,2.5899 13.63,7.7344 3.11,5.1875 4.8,12.9414 5.1,23.2578 l 24.46,0.1758" style="fill:#4e4b41;fill-opacity:1;fill-rule:nonzero;stroke:none" id="path90"></path>
      <path d="m 2004.89,8.56641 c -4.83,-2.78516 -9.68,-4.875 -14.62,-6.23047 -4.9,-1.32031 -10.12,-2.015627 -15.61,-2.015627 -22.02,0 -38.49,9.855487 -49.41,29.550787 -10.9,19.6758 -16.36,49.3828 -16.36,89.0979 0,40.461 5.83,71.058 17.49,91.851 11.64,20.762 28.86,31.164 51.67,31.164 5.01,0 9.73,-0.558 14.15,-1.632 4.43,-1.082 8.64,-2.637 12.69,-4.668 v -30.196 c -4.14,2.246 -8.1,3.926 -11.88,5 -3.78,1.082 -7.34,1.614 -10.69,1.614 -15.43,0 -26.69,-7.383 -33.75,-22.18 -7.09,-14.809 -10.63,-38.344 -10.63,-70.641 0,-30.1247 3.37,-52.4099 10.1,-66.8943 6.74,-14.4765 17.13,-21.7109 31.18,-21.7109 4.04,0 8.11,0.7305 12.25,2.1836 4.12,1.457 8.59,3.6719 13.42,6.6914 V 8.56641" style="fill:#4e4b41;fill-opacity:1;fill-rule:nonzero;stroke:none" id="path92"></path>
      <path d="m 2050.4,99.75 h 40.55 v 4.043 c 0,13.02 -1.57,22.434 -4.71,28.242 -3.16,5.82 -8.22,8.723 -15.2,8.723 -6.78,0 -11.92,-3.469 -15.39,-10.403 -3.5,-6.953 -5.25,-17.136 -5.25,-30.605 m 64.73,-43.5625 v -2.1016 c 0,-16.7031 -3.83,-29.8281 -11.51,-39.3906 -7.66,-9.58592 -18.12,-14.363269 -31.4,-14.363269 -16.21,0 -28.08,6.582029 -35.59,19.777369 -7.51,13.1719 -11.29,34.2304 -11.29,63.1758 0,27.2378 3.78,47.5698 11.29,61.0278 7.51,13.457 18.89,20.164 34.11,20.164 16.22,0 27.93,-6.094 35.09,-18.309 7.18,-12.207 10.78,-32.219 10.78,-59.961 v -9.2109 h -66.21 v -4.668 c 0,-16.5898 1.72,-28.6054 5.18,-36.0781 3.41,-7.4805 8.89,-11.2305 16.34,-11.2305 6,0 10.55,2.5899 13.64,7.7344 3.11,5.1875 4.79,12.9414 5.08,23.2578 l 24.49,0.1758" style="fill:#4e4b41;fill-opacity:1;fill-rule:nonzero;stroke:none" id="path94"></path>
      <path d="M 2147.1,3.23438 V 161.578 h 26.24 v -15.812 c 3.54,5.812 7.83,10.175 12.9,13.086 5.07,2.89 10.94,4.347 17.63,4.347 10.6,0 18.49,-3.222 23.66,-9.679 5.15,-6.465 7.73,-16.309 7.73,-29.532 V 3.23438 h -26.68 V 109.594 c 0,10.773 -1.29,18.105 -3.83,21.965 -2.56,3.867 -6.99,5.82 -13.28,5.82 -5.88,0 -10.34,-2.024 -13.34,-6.047 -2.99,-4.051 -4.5,-10.059 -4.5,-18.027 V 3.23438 h -26.53" style="fill:#4e4b41;fill-opacity:1;fill-rule:nonzero;stroke:none" id="path96"></path>
      <path d="M 2273.86,3.23438 V 140.121 h -14.45 v 21.457 h 14.45 v 42.945 h 26.54 v -42.945 h 19.89 V 140.121 H 2300.4 V 3.23438 h -26.54" style="fill:#4e4b41;fill-opacity:1;fill-rule:nonzero;stroke:none" id="path98"></path>
      <path d="m 2360.82,99.75 h 40.54 v 4.043 c 0,13.02 -1.57,22.434 -4.71,28.242 -3.15,5.82 -8.21,8.723 -15.19,8.723 -6.77,0 -11.93,-3.469 -15.42,-10.403 -3.48,-6.953 -5.22,-17.136 -5.22,-30.605 m 64.72,-43.5625 v -2.1016 c 0,-16.7031 -3.83,-29.8281 -11.51,-39.3906 -7.66,-9.58592 -18.13,-14.363269 -31.38,-14.363269 -16.23,0 -28.09,6.582029 -35.63,19.777369 -7.5,13.1719 -11.27,34.2304 -11.27,63.1758 0,27.2378 3.77,47.5698 11.27,61.0278 7.54,13.457 18.92,20.164 34.15,20.164 16.22,0 27.91,-6.094 35.09,-18.309 7.17,-12.207 10.75,-32.219 10.75,-59.961 v -9.2109 h -66.19 v -4.668 c 0,-16.5898 1.72,-28.6054 5.16,-36.0781 3.42,-7.4805 8.89,-11.2305 16.35,-11.2305 6.01,0 10.55,2.5899 13.67,7.7344 3.08,5.1875 4.77,12.9414 5.07,23.2578 l 24.47,0.1758" style="fill:#4e4b41;fill-opacity:1;fill-rule:nonzero;stroke:none" id="path100"></path>
      <path d="M 2457.8,3.23438 V 161.578 h 25.66 v -23.086 c 3.64,8.399 8.29,14.727 14,18.985 5.68,4.238 12.67,6.57 20.93,7 v -30.664 h -4.43 c -10.32,0 -17.87,-2.821 -22.7,-8.477 -4.8,-5.633 -7.22,-14.492 -7.22,-26.543 V 3.23438 h -26.24" style="fill:#4e4b41;fill-opacity:1;fill-rule:nonzero;stroke:none" id="path102"></path>
    </g>
  </g>
</svg>
